<?xml version="1.0" standalone="no"?>
<!DOCTYPE svg PUBLIC "-//W3C//DTD SVG 20010904//EN"
 "http://www.w3.org/TR/2001/REC-SVG-20010904/DTD/svg10.dtd">
<svg version="1.0" xmlns="http://www.w3.org/2000/svg"
 width="700.000000pt" height="700.000000pt" viewBox="0 0 700.000000 700.000000"
 preserveAspectRatio="xMidYMid meet">
<metadata>
Created by potrace 1.11, written by Peter Selinger 2001-2013
</metadata>
<g transform="translate(0.000000,700.000000) scale(0.100000,-0.100000)"
fill="#000000" stroke="none">
<path d="M3345 6970 c-38 -5 -131 -13 -205 -19 -166 -14 -310 -35 -338 -50
-11 -6 -39 -11 -61 -11 -23 0 -41 -4 -41 -10 0 -5 -16 -10 -35 -10 -19 0 -35
-4 -35 -8 0 -4 -21 -13 -47 -19 -46 -11 -102 -26 -203 -55 -25 -7 -47 -15 -50
-18 -9 -11 -78 -40 -93 -40 -9 0 -18 -4 -22 -9 -3 -5 -22 -15 -43 -22 -20 -6
-60 -22 -89 -35 -28 -13 -57 -24 -62 -24 -6 0 -11 -4 -11 -10 0 -5 -6 -10 -14
-10 -16 0 -73 -29 -94 -47 -7 -7 -19 -13 -27 -13 -17 0 -73 -30 -99 -53 -12
-10 -41 -28 -66 -40 -25 -12 -49 -28 -53 -34 -4 -7 -17 -13 -27 -13 -11 0 -20
-4 -20 -10 0 -5 -7 -10 -15 -10 -8 0 -28 -13 -43 -30 -16 -16 -32 -30 -36 -30
-9 0 -70 -43 -74 -52 -2 -5 -9 -8 -15 -8 -7 0 -18 -9 -25 -20 -7 -11 -17 -20
-24 -20 -21 0 -117 -90 -111 -105 3 -8 0 -15 -6 -15 -6 0 -11 5 -11 10 0 6
-11 1 -24 -12 -66 -64 -95 -88 -108 -88 -10 0 -9 -3 2 -11 11 -8 12 -12 3 -16
-7 -2 -13 -18 -13 -34 0 -30 -13 -36 -39 -20 -10 6 -24 -1 -49 -25 -19 -19
-38 -34 -42 -34 -4 0 -7 -12 -8 -26 0 -29 -22 -57 -29 -37 -4 10 -8 9 -19 -1
-8 -8 -14 -18 -14 -22 0 -4 -18 -24 -40 -45 -22 -21 -40 -40 -40 -43 0 -3 -14
-20 -30 -38 -17 -18 -30 -38 -30 -45 0 -6 -11 -20 -25 -31 -14 -11 -25 -24
-25 -30 0 -5 -7 -12 -14 -15 -8 -3 -18 -22 -22 -42 -3 -19 -10 -38 -15 -41 -5
-3 -9 -16 -9 -30 0 -15 -6 -24 -15 -24 -8 0 -15 -7 -15 -15 0 -8 -4 -15 -10
-15 -5 0 -10 -9 -10 -19 0 -10 -7 -21 -14 -24 -11 -4 -13 -1 -10 11 4 10 -2 7
-15 -8 -11 -14 -23 -33 -27 -42 -3 -10 -10 -18 -15 -18 -5 0 -9 -9 -9 -19 0
-11 -6 -26 -14 -34 -8 -7 -16 -25 -18 -38 -2 -13 -9 -23 -15 -22 -11 3 -93
-152 -93 -176 0 -6 -3 -11 -8 -11 -9 0 -38 -56 -47 -90 -10 -39 -37 -100 -45
-100 -4 0 -10 -18 -14 -41 -4 -22 -14 -52 -24 -67 -9 -14 -22 -46 -29 -71 -30
-120 -35 -137 -43 -156 -13 -28 -40 -143 -40 -166 0 -10 -4 -19 -10 -19 -5 0
-10 -17 -10 -38 0 -22 -7 -61 -15 -88 -8 -27 -17 -78 -21 -114 -3 -36 -8 -72
-12 -80 -14 -36 -35 -330 -36 -495 0 -206 41 -613 67 -652 4 -7 11 -35 14 -63
3 -27 10 -50 14 -50 5 0 9 -18 9 -40 0 -22 4 -40 9 -40 5 0 12 -23 16 -51 4
-28 13 -63 21 -77 8 -15 14 -39 14 -54 0 -16 4 -28 9 -28 5 0 12 -17 16 -37 4
-21 15 -55 25 -76 10 -21 22 -52 26 -70 3 -18 17 -54 30 -81 13 -27 26 -64 30
-83 3 -18 10 -33 14 -33 4 0 11 -11 14 -25 4 -14 11 -25 16 -25 6 0 10 -7 10
-15 0 -8 4 -23 9 -33 5 -9 27 -53 48 -97 21 -44 45 -87 53 -95 21 -20 60 -88
60 -105 0 -7 6 -15 13 -18 7 -2 21 -22 32 -43 11 -21 26 -45 33 -53 7 -9 32
-45 55 -80 23 -36 59 -82 80 -102 20 -21 37 -43 37 -49 0 -5 5 -10 10 -10 6 0
10 -7 10 -15 0 -7 42 -57 94 -110 52 -52 91 -95 86 -95 -5 0 -15 7 -24 15 -16
17 -36 20 -36 6 0 -8 -8 -18 -79 -101 -17 -19 -31 -40 -31 -46 0 -7 -7 -14
-15 -18 -15 -5 -22 -66 -8 -66 16 0 73 25 73 32 0 4 5 8 11 8 6 0 31 14 56 30
24 17 47 30 50 30 11 0 53 45 53 58 0 7 -7 15 -15 18 -8 4 -15 10 -15 15 0 17
25 -2 49 -36 13 -19 45 -51 72 -72 27 -20 49 -41 49 -46 0 -10 41 -46 53 -47
9 0 40 -26 99 -82 16 -16 32 -28 34 -28 5 0 84 -57 111 -80 7 -5 15 -10 18
-10 3 0 16 -9 28 -21 12 -11 31 -25 42 -30 11 -5 47 -27 80 -49 33 -21 85 -53
115 -71 30 -17 57 -35 60 -38 3 -4 20 -13 38 -21 19 -7 39 -18 46 -24 17 -16
76 -44 108 -52 16 -3 28 -10 28 -15 0 -5 9 -9 19 -9 11 0 32 -7 48 -15 58 -30
139 -63 170 -70 18 -3 35 -11 38 -16 4 -5 15 -9 27 -9 11 0 34 -6 51 -14 29
-13 81 -28 147 -43 14 -3 27 -9 30 -12 7 -9 85 -31 155 -43 33 -6 62 -14 65
-18 6 -9 131 -24 380 -46 326 -28 734 -5 1070 60 117 23 185 40 190 47 3 3 21
9 40 12 19 3 60 13 90 22 30 9 75 22 100 28 25 6 47 14 50 17 3 4 19 10 35 14
17 4 48 15 70 26 101 48 198 90 207 90 12 0 33 21 41 40 3 9 6 10 6 3 1 -15
31 -18 31 -3 0 6 7 10 15 10 8 0 15 4 15 9 0 5 11 12 25 15 14 4 25 10 25 15
0 5 13 12 29 16 16 3 35 13 42 21 6 8 19 14 29 14 9 0 29 9 43 20 14 11 28 20
31 20 8 0 142 87 158 103 7 7 42 35 78 62 36 27 77 62 92 77 15 16 31 28 36
28 5 0 38 28 74 62 36 35 96 93 134 129 84 79 254 259 254 268 0 3 21 29 47
56 25 28 59 71 75 98 17 26 33 47 37 47 4 0 16 16 27 35 10 19 22 35 26 35 5
0 8 7 8 15 0 9 6 18 14 21 8 3 17 15 20 27 3 13 14 32 25 44 12 12 31 40 43
63 13 22 38 67 55 98 18 31 43 77 54 102 12 25 26 47 30 48 5 2 9 10 9 19 0 8
7 27 14 41 8 15 23 45 32 67 10 22 20 42 23 45 8 6 30 64 44 112 6 21 15 38
19 38 4 0 8 9 8 20 0 11 9 37 20 57 11 21 20 50 20 65 0 15 5 30 10 33 6 3 10
17 10 30 0 13 4 26 9 29 7 5 11 23 25 126 2 14 13 54 24 90 11 36 23 97 26
135 4 39 11 74 17 80 5 5 9 37 9 71 0 41 4 64 13 66 9 4 12 105 12 463 0 358
-3 459 -12 462 -9 3 -13 25 -13 63 0 32 -4 61 -9 64 -5 3 -12 34 -16 68 -4 35
-11 68 -15 73 -4 6 -12 35 -18 65 -17 85 -33 142 -53 184 -11 21 -22 56 -25
77 -4 21 -10 39 -14 39 -4 0 -11 16 -15 36 -3 20 -12 50 -20 68 -8 17 -22 50
-31 74 -10 23 -21 42 -26 42 -4 0 -8 10 -8 23 -1 12 -18 54 -38 94 -20 40 -53
103 -72 142 -20 40 -40 68 -47 66 -7 -2 -10 2 -7 10 3 8 -4 26 -15 41 -12 15
-21 33 -21 41 0 8 -5 19 -10 26 -6 7 -22 26 -36 42 -14 17 -27 42 -30 56 -3
15 -16 37 -27 50 -12 13 -28 36 -36 51 -7 15 -29 42 -47 60 -18 18 -34 38 -34
43 0 6 -11 22 -25 37 -14 15 -25 31 -25 35 0 5 -8 15 -17 24 -10 8 -29 30 -43
48 -49 63 -153 183 -182 210 -10 9 -49 46 -86 84 -38 37 -71 67 -75 67 -3 0
-27 20 -53 45 -26 25 -60 53 -75 61 -16 8 -29 19 -29 24 0 6 -5 10 -10 10 -6
0 -21 11 -34 25 -13 14 -26 25 -30 25 -3 0 -32 20 -65 45 -32 25 -62 45 -65
45 -4 0 -16 9 -28 20 -25 23 -152 100 -166 100 -5 0 -17 9 -26 19 -10 11 -29
22 -44 26 -15 4 -29 10 -32 13 -3 4 -23 15 -45 26 -22 10 -47 22 -55 27 -8 5
-22 12 -30 16 -8 4 -17 9 -20 13 -6 6 -53 26 -145 61 -33 12 -64 26 -70 31 -5
4 -15 8 -23 8 -8 0 -30 7 -50 16 -54 24 -67 28 -177 62 -122 38 -170 48 -161
34 11 -19 -15 -25 -32 -8 -15 15 -15 18 -2 26 11 7 7 10 -17 10 -18 0 -33 4
-33 9 0 5 -29 12 -65 16 -36 3 -67 11 -70 16 -4 5 -20 9 -37 9 -16 0 -69 7
-117 15 -124 22 -314 34 -323 21 -5 -8 -14 -7 -30 3 -27 17 -241 24 -343 11z
m-825 -394 c0 -14 -24 -29 -33 -19 -3 3 -3 11 0 19 7 18 33 18 33 0z m902
-191 c17 -276 20 -347 11 -356 -5 -5 -36 -12 -70 -15 l-62 -7 -10 39 c-12 45
-33 245 -27 252 3 2 -2 22 -10 44 -8 22 -14 62 -14 89 0 46 2 49 33 58 17 5
57 9 87 8 l55 -2 7 -110z m408 101 c14 -2 46 -8 72 -11 26 -3 54 -12 62 -20 7
-8 27 -13 42 -12 26 2 29 -2 32 -31 5 -51 -15 -63 -84 -52 -87 14 -125 12
-139 -7 -17 -23 2 -41 54 -49 23 -4 41 -10 41 -15 0 -5 12 -9 26 -9 15 0 46
-12 70 -27 34 -22 45 -36 51 -63 13 -74 -1 -151 -34 -185 -29 -28 -69 -31
-178 -14 -33 5 -101 14 -152 19 -51 4 -97 11 -103 15 -11 7 -14 74 -4 99 7 18
74 23 74 6 0 -5 21 -10 48 -10 26 -1 65 -4 88 -9 51 -10 78 6 69 41 -6 24 -59
48 -108 48 -42 0 -121 33 -149 61 -33 34 -36 77 -11 141 21 52 37 70 77 84 30
11 106 11 156 0z m-884 -57 c14 -16 20 -42 24 -117 5 -91 19 -142 39 -142 5 0
12 -11 15 -25 6 -22 11 -25 56 -25 28 0 50 5 50 10 0 14 29 12 44 -3 18 -17
28 -94 16 -117 -7 -13 -26 -20 -67 -25 -32 -4 -81 -13 -110 -21 -28 -8 -64
-14 -80 -14 -26 0 -31 5 -41 39 -7 21 -12 48 -12 60 0 11 -4 21 -10 21 -5 0
-10 12 -10 26 0 14 -6 46 -14 72 -37 124 -56 199 -56 223 0 24 6 28 58 42 76
20 76 20 98 -4z m1352 -26 c37 -10 69 -21 70 -25 2 -5 11 -8 20 -8 10 0 49
-12 87 -26 39 -14 89 -30 113 -36 23 -5 42 -14 42 -19 0 -5 8 -9 18 -9 45 0
53 -39 21 -100 -23 -44 -48 -51 -86 -25 -12 8 -42 18 -66 21 -39 6 -46 3 -61
-17 -9 -13 -16 -36 -16 -51 0 -15 -6 -42 -14 -60 -8 -18 -22 -61 -32 -95 -13
-48 -22 -63 -36 -63 -10 0 -18 -6 -18 -12 0 -9 -3 -9 -8 -3 -4 6 -26 17 -49
25 -53 16 -53 17 -12 181 37 144 35 171 -13 188 -101 38 -110 50 -86 118 14
39 29 41 126 16z m-1751 -110 c18 -21 33 -42 33 -46 0 -4 11 -18 25 -31 14
-13 25 -28 25 -34 0 -6 3 -12 8 -14 10 -4 82 -106 82 -116 0 -5 11 -19 25 -32
14 -13 25 -29 25 -36 0 -6 7 -17 15 -24 19 -16 19 -40 1 -40 -8 0 -16 -4 -18
-10 -1 -5 -24 -13 -51 -16 -38 -5 -51 -3 -67 11 -22 20 -77 22 -109 6 -10 -6
-22 -26 -25 -46 -7 -38 -50 -85 -78 -85 -9 0 -20 -4 -23 -10 -8 -13 -52 -13
-60 -1 -3 6 -12 76 -20 156 -8 80 -20 155 -25 166 -6 10 -10 52 -8 91 3 79 1
76 88 111 19 7 46 19 60 25 43 18 62 13 97 -25z m-520 -201 c6 -4 17 -19 23
-32 17 -39 36 -69 59 -96 11 -13 21 -26 21 -29 0 -3 12 -24 27 -48 39 -60 51
-80 59 -97 4 -8 19 -28 33 -43 31 -34 23 -51 -39 -84 -67 -36 -77 -32 -117 42
-11 22 -30 56 -42 75 -11 19 -25 46 -31 59 -6 13 -20 32 -30 41 -11 10 -20 22
-20 28 0 5 -7 12 -15 16 -8 3 -15 10 -15 16 0 6 -12 26 -26 45 -21 28 -23 37
-14 54 6 12 15 21 21 21 5 0 19 9 31 20 22 20 54 26 75 12z m3151 -87 c15 -14
30 -25 33 -25 3 0 15 -8 27 -18 12 -10 41 -31 66 -47 26 -16 46 -33 46 -37 0
-4 5 -8 10 -8 14 0 43 -31 57 -61 40 -90 18 -197 -50 -252 -38 -30 -47 -32
-110 -31 -64 2 -74 5 -129 44 -63 44 -90 46 -116 9 -17 -24 -53 -24 -94 1 -46
28 -60 58 -42 92 8 16 19 28 24 28 6 0 10 7 10 16 0 15 57 95 72 102 5 2 8 10
8 17 0 8 6 20 13 27 20 20 77 130 77 148 0 9 3 20 7 24 13 13 62 -3 91 -29z
m-3435 -139 c25 -33 37 -76 20 -76 -5 0 -33 -22 -63 -50 -30 -27 -58 -49 -62
-50 -5 0 -8 -7 -8 -15 0 -8 -4 -15 -10 -15 -5 0 -10 -16 -10 -35 0 -19 5 -35
10 -35 6 0 10 -7 10 -15 0 -8 4 -15 9 -15 6 0 22 -11 37 -25 15 -14 37 -25 49
-25 23 0 83 37 134 83 17 15 35 27 41 27 5 0 10 5 10 10 0 6 9 10 21 10 21 0
52 -32 77 -78 15 -30 15 -32 0 -32 -6 0 -28 -18 -49 -40 -21 -22 -42 -40 -47
-40 -4 0 -26 -17 -49 -37 -59 -56 -95 -73 -148 -73 -38 0 -52 5 -71 25 -13 14
-27 25 -31 25 -15 0 -130 118 -162 166 -32 48 -39 78 -21 89 6 3 10 15 10 26
0 20 83 109 101 109 5 0 9 4 9 9 0 5 17 20 38 32 20 13 46 33 58 44 20 22 39
33 59 34 6 1 22 -15 38 -33z m2045 -40 c5 -3 44 -10 88 -16 168 -23 241 -38
284 -58 25 -12 59 -22 77 -22 22 0 38 -8 50 -24 15 -19 22 -22 40 -13 18 8 27
6 41 -6 10 -10 25 -17 33 -17 9 0 24 -7 35 -15 10 -8 29 -15 41 -15 12 0 23
-3 25 -7 2 -5 38 -26 81 -48 42 -22 77 -43 77 -46 0 -4 13 -9 29 -12 15 -3 42
-17 59 -31 16 -15 35 -26 41 -26 6 0 11 -4 11 -10 0 -5 5 -10 12 -10 19 0 107
-61 147 -101 21 -22 41 -39 44 -39 8 0 70 -57 175 -161 95 -95 122 -127 122
-145 0 -8 7 -17 15 -20 8 -4 15 -11 15 -16 0 -6 11 -21 25 -34 14 -13 25 -27
25 -33 0 -5 3 -11 8 -13 4 -1 24 -29 45 -60 21 -32 42 -58 48 -58 5 0 9 -5 9
-10 0 -6 14 -29 30 -52 17 -22 30 -47 30 -55 0 -7 4 -13 9 -13 5 0 13 -14 16
-32 4 -18 18 -48 31 -68 12 -19 26 -48 29 -65 10 -41 28 -85 37 -85 4 0 10
-17 14 -37 4 -21 10 -42 14 -48 4 -5 11 -28 14 -49 4 -21 13 -44 20 -51 6 -7
18 -32 24 -56 7 -24 20 -65 27 -90 8 -26 15 -68 15 -93 0 -26 5 -57 12 -69 6
-12 16 -47 21 -77 9 -54 13 -309 7 -440 -1 -36 1 -80 5 -98 4 -19 3 -37 -3
-45 -6 -7 -11 -38 -11 -69 0 -36 -5 -66 -15 -80 -11 -15 -16 -44 -16 -85 0
-38 -8 -87 -20 -120 -11 -32 -20 -67 -20 -80 0 -12 -4 -25 -10 -28 -5 -3 -10
-15 -10 -26 0 -10 -4 -19 -10 -19 -5 0 -10 -9 -10 -20 0 -11 -8 -39 -19 -62
-10 -24 -26 -68 -36 -98 -21 -69 -59 -152 -77 -171 -8 -8 -22 -32 -32 -53 -10
-21 -34 -54 -52 -73 -19 -18 -37 -45 -40 -58 -3 -14 -10 -28 -15 -31 -5 -3 -9
-14 -9 -25 0 -10 -6 -19 -12 -19 -7 0 -21 -17 -30 -38 -21 -44 -154 -192 -174
-192 -7 0 -16 -11 -20 -25 -3 -13 -21 -36 -40 -50 -19 -14 -34 -31 -34 -36 0
-12 -34 -45 -106 -104 -27 -22 -50 -43 -52 -47 -2 -5 -10 -8 -18 -8 -8 0 -14
-4 -14 -10 0 -5 -12 -13 -27 -16 -16 -4 -44 -19 -63 -34 -30 -23 -93 -66 -209
-142 -14 -9 -33 -17 -42 -17 -9 -1 -29 -13 -45 -27 -41 -36 -86 -64 -105 -64
-15 0 -41 -10 -154 -59 -63 -28 -151 -44 -259 -49 -95 -3 -99 -5 -123 -33 -23
-26 -30 -29 -89 -29 -36 0 -64 -4 -64 -10 0 -6 -37 -10 -90 -10 -79 0 -90 2
-90 18 0 9 -6 25 -14 34 -11 15 -16 15 -52 3 -44 -16 -44 -16 11 -18 29 -2 41
-7 43 -19 3 -17 -10 -18 -172 -18 -111 0 -176 4 -176 10 0 6 -17 10 -38 10
-20 0 -53 5 -72 11 -19 6 -60 15 -90 19 -85 13 -155 29 -158 38 -1 5 -15 7
-31 4 -16 -2 -32 1 -35 7 -4 6 -18 11 -31 11 -12 0 -43 11 -66 25 -24 14 -53
25 -64 25 -11 0 -29 7 -39 15 -11 8 -30 15 -42 15 -12 0 -27 7 -34 15 -7 8
-19 15 -27 15 -13 0 -71 28 -83 40 -3 3 -25 15 -50 28 -75 38 -138 76 -167
100 -15 12 -33 22 -40 22 -6 0 -16 6 -20 13 -4 7 -25 23 -45 36 -21 12 -38 27
-38 32 0 5 -6 9 -13 9 -7 0 -18 9 -25 20 -7 11 -16 20 -22 20 -14 0 -242 228
-294 295 -68 87 -89 114 -103 130 -7 7 -13 16 -13 20 0 6 -13 23 -42 56 -10
10 -18 23 -18 28 0 5 -11 19 -25 32 -13 13 -25 29 -25 36 0 17 -33 77 -47 86
-7 4 -13 17 -13 27 0 11 -4 20 -9 20 -5 0 -12 12 -16 27 -3 15 -10 30 -14 33
-14 9 -62 121 -68 156 -5 32 -16 43 -26 27 -2 -5 -2 -2 -1 5 7 29 -9 70 -30
76 -17 5 -18 8 -6 15 11 8 12 15 3 33 -16 35 -33 105 -45 191 -6 42 -15 77
-19 77 -4 0 -10 30 -14 68 -4 37 -13 80 -21 96 -17 36 -17 36 1 36 8 0 15 7
15 15 0 8 -6 15 -13 15 -10 0 -13 25 -11 111 3 89 0 111 -11 116 -16 6 -21 53
-6 53 5 0 12 -10 14 -22 3 -17 5 -15 6 9 0 18 -6 39 -16 49 -17 17 -17 18 0
11 16 -6 17 0 15 61 -2 48 2 78 14 103 11 23 18 58 17 90 -2 78 11 170 23 163
7 -4 9 11 7 40 -3 32 0 46 8 46 7 0 16 18 19 40 4 22 10 40 15 40 5 0 9 14 9
30 0 17 5 30 10 30 6 0 10 9 10 21 0 11 5 29 10 40 7 13 7 19 0 19 -5 0 -10 7
-10 15 0 8 6 15 14 15 9 0 12 9 10 28 -2 15 -1 19 2 9 5 -17 8 -15 21 9 8 16
12 36 10 46 -3 11 0 18 9 18 8 0 14 5 14 10 0 6 -4 10 -10 10 -5 0 -10 5 -10
11 0 5 5 7 10 4 15 -9 38 18 47 56 5 20 18 38 31 44 12 5 24 22 27 37 4 15 11
30 16 33 5 4 9 13 9 22 0 8 15 36 34 62 18 25 37 56 40 68 4 12 20 33 37 47
16 14 29 29 29 35 0 6 3 11 8 11 4 0 18 18 32 40 14 22 28 40 32 40 4 0 5 14
2 30 -4 19 -2 30 5 30 6 0 11 -4 11 -10 0 -5 5 -10 10 -10 6 0 10 9 10 21 0
11 5 19 12 17 6 -2 28 14 47 36 20 23 39 43 44 44 4 2 7 10 7 17 0 7 11 16 25
19 15 4 27 16 31 29 3 14 27 36 59 56 30 18 67 45 83 59 50 47 82 72 91 72 5
0 11 3 13 8 5 11 66 52 78 52 5 0 10 4 10 9 0 5 13 13 28 19 16 5 35 16 43 24
16 16 104 63 194 105 22 10 42 21 43 26 2 4 11 7 20 7 10 0 26 7 36 15 11 8
29 15 41 15 12 0 25 4 30 9 6 5 42 18 80 30 39 12 106 32 150 46 138 42 224
57 329 57 56 -1 129 4 164 11 49 8 70 8 99 -2 22 -8 38 -10 42 -4 3 6 13 13
21 16 17 7 235 1 248 -7z m759 -8 c-3 -8 -6 -5 -6 6 -1 11 2 17 5 13 3 -3 4
-12 1 -19z m1146 -250 c24 -12 46 -34 92 -93 49 -62 50 -64 24 -114 -13 -25
-26 -48 -29 -51 -3 -3 -14 -23 -25 -45 -11 -22 -37 -56 -57 -76 -26 -25 -38
-46 -38 -64 0 -37 -55 -113 -92 -128 -11 -4 -24 5 -40 29 -12 18 -26 34 -30
34 -5 0 -8 11 -8 25 0 14 -6 25 -12 25 -9 0 -10 2 -2 8 7 4 19 24 28 46 l16
38 -42 40 -43 40 -66 -6 -66 -7 -32 36 c-37 42 -40 77 -8 93 26 14 103 42 134
49 12 3 28 11 34 19 6 8 21 14 33 14 12 0 33 8 46 18 30 21 142 81 153 81 5 1
18 -4 30 -11z m-4376 -166 c18 -9 33 -19 33 -24 0 -4 5 -8 10 -8 6 0 23 -12
38 -27 15 -16 49 -45 75 -66 26 -21 47 -46 47 -55 0 -9 7 -26 15 -36 34 -44
13 -106 -63 -187 -17 -19 -32 -38 -32 -44 0 -18 -68 -65 -94 -65 -13 0 -37 7
-53 15 -15 8 -48 24 -73 35 -85 39 -129 65 -154 93 -14 15 -30 27 -36 27 -5 0
-10 5 -10 10 0 6 -9 20 -20 32 -11 12 -20 31 -20 43 0 12 9 30 20 40 11 10 20
24 20 31 0 7 3 14 8 16 11 5 62 83 62 96 0 7 4 12 10 12 14 0 60 49 60 65 0
28 96 26 157 -3z m4722 -258 c11 -14 26 -39 33 -55 7 -16 16 -29 20 -29 5 0 8
-7 8 -15 0 -8 5 -15 10 -15 6 0 10 -4 10 -9 0 -6 16 -37 35 -70 40 -68 46
-132 19 -200 -22 -55 -83 -86 -152 -76 -50 7 -76 -6 -127 -61 -11 -12 -32 -29
-48 -39 -33 -21 -50 -11 -73 43 -22 53 -18 77 20 109 18 15 41 40 51 56 17 26
17 28 -1 48 -15 16 -27 20 -56 16 -21 -3 -45 -12 -53 -21 -26 -25 -59 -19 -86
15 -37 48 -42 77 -16 93 139 84 177 108 177 115 0 3 23 15 51 26 28 11 61 29
73 40 27 24 69 54 78 54 4 1 16 -11 27 -25z m-4389 -173 c-6 -12 -18 -21 -28
-20 -10 0 -12 3 -4 6 6 2 12 10 12 17 0 16 24 39 28 27 2 -5 -2 -19 -8 -30z
m-753 -73 c17 -14 16 -33 -2 -52 -8 -8 -15 -22 -15 -30 0 -9 -4 -16 -9 -16
-13 0 -41 -75 -41 -110 0 -17 4 -30 9 -30 5 0 15 -2 23 -5 14 -5 69 39 81 65
36 78 95 120 167 120 36 0 94 -22 110 -41 3 -3 15 -11 28 -18 18 -10 22 -20
22 -58 0 -29 -5 -50 -15 -57 -8 -6 -29 -49 -46 -96 -16 -47 -34 -86 -39 -88
-6 -2 -10 -12 -10 -23 0 -11 -7 -31 -16 -44 -13 -19 -25 -25 -54 -25 -78 0
-84 13 -45 90 14 28 22 50 18 50 -5 0 -3 4 2 8 6 4 19 26 29 50 19 41 19 43 1
63 l-19 20 -26 -28 c-14 -15 -47 -58 -74 -94 -40 -56 -54 -68 -84 -73 -65 -10
-110 4 -158 48 -37 35 -44 47 -44 79 0 21 9 55 20 75 11 20 31 60 44 87 12 28
36 74 51 103 26 48 31 53 54 47 14 -4 32 -11 38 -17z m550 -230 c-3 -8 -6 -5
-6 6 -1 11 2 17 5 13 3 -3 4 -12 1 -19z m4862 -35 c7 -21 19 -51 26 -68 39
-94 75 -206 75 -233 0 -12 5 -24 10 -27 17 -11 12 -65 -7 -71 -10 -3 -28 -10
-40 -16 -12 -6 -32 -8 -45 -5 -26 7 -58 54 -58 85 0 43 -67 60 -112 28 -12 -9
-32 -16 -44 -16 -11 0 -54 -12 -94 -26 -48 -18 -78 -24 -88 -18 -14 9 -42 77
-42 104 0 18 53 50 85 50 12 0 28 7 35 15 7 8 22 15 34 15 11 1 46 9 76 19 68
24 82 46 73 119 -5 49 -4 52 16 52 12 0 29 7 37 15 26 26 49 18 63 -22z
m-4869 -3 c0 -5 -4 -10 -10 -10 -5 0 -10 5 -10 10 0 6 5 10 10 10 6 0 10 -4
10 -10z m-1243 -322 c-3 -7 -5 -2 -5 12 0 14 2 19 5 13 2 -7 2 -19 0 -25z
m1023 -153 c-6 -30 -8 -33 -9 -13 -1 25 8 62 14 56 2 -2 -1 -21 -5 -43z m5240
6 c5 -11 10 -38 10 -60 0 -23 5 -41 10 -41 25 0 8 -31 -47 -83 -18 -17 -33
-36 -33 -43 0 -7 -5 -14 -12 -16 -7 -3 20 -36 59 -74 71 -69 77 -80 74 -151
-1 -28 -5 -33 -25 -33 -21 0 -58 23 -95 58 -8 8 -27 19 -43 24 -15 6 -28 16
-28 24 0 8 -7 14 -15 14 -8 0 -15 7 -15 15 0 8 -4 15 -10 15 -5 0 -10 6 -10
13 0 13 -86 18 -106 5 -6 -4 -41 -10 -77 -14 -64 -6 -67 -6 -75 17 -16 43 -20
107 -8 123 7 11 37 17 96 21 105 7 111 9 152 48 92 88 170 157 178 157 5 0 14
-9 20 -19z m-5629 -90 c23 -19 24 -19 5 -40 -33 -37 -75 -22 -67 24 3 19 18
34 32 35 4 0 17 -9 30 -19z m4996 -133 c-3 -8 -6 -5 -6 6 -1 11 2 17 5 13 3
-3 4 -12 1 -19z m-4670 -135 c-3 -10 -5 -4 -5 12 0 17 2 24 5 18 2 -7 2 -21 0
-30z m-189 -170 c3 -40 2 -41 -35 -47 -101 -19 -138 -41 -113 -70 5 -7 39 -19
76 -26 66 -14 87 -31 65 -53 -6 -6 -24 -12 -40 -13 -44 -3 -91 -34 -91 -60 0
-19 7 -23 53 -29 77 -11 89 -19 85 -63 -3 -36 -4 -37 -48 -40 -25 -2 -79 1
-120 7 -69 10 -159 19 -270 26 -25 1 -48 3 -52 4 -5 0 -8 16 -8 34 0 25 6 36
29 50 16 9 43 17 60 17 17 0 31 5 31 10 0 6 7 10 15 10 8 0 24 9 36 21 18 18
19 24 9 44 -12 22 -22 26 -137 55 -40 10 -43 13 -43 43 0 31 3 34 55 50 31 9
76 17 100 17 25 0 45 5 45 10 0 6 16 10 36 10 19 0 65 7 102 15 68 15 129 23
147 20 6 -1 11 -20 13 -42z m-111 -99 c-3 -3 -12 -4 -19 -1 -8 3 -5 6 6 6 11
1 17 -2 13 -5z m-219 -91 c6 -19 -33 -16 -49 3 -11 14 -9 15 16 12 16 -1 30
-9 33 -15z m492 -48 c0 -14 -4 -25 -10 -25 -5 0 -10 11 -10 25 0 14 5 25 10
25 6 0 10 -11 10 -25z m5178 -41 c27 -18 28 -35 5 -63 -16 -19 -22 -20 -55
-11 -46 13 -49 33 -10 66 32 28 31 28 60 8z m-5374 -205 c38 -9 45 -15 54 -47
24 -82 25 -109 5 -129 -27 -27 -86 -53 -121 -53 -17 0 -33 -4 -36 -9 -3 -4
-36 -11 -72 -14 -37 -4 -70 -11 -74 -17 -10 -17 -100 -29 -131 -18 -30 10 -41
35 -55 125 -5 31 -2 49 9 66 24 37 98 67 162 67 30 0 55 4 55 9 0 4 28 13 63
18 87 14 93 14 141 2z m5154 -234 c6 -77 60 -101 89 -40 11 24 23 35 37 35 31
-1 56 -24 56 -52 0 -37 34 -72 62 -64 13 3 28 9 33 13 12 9 35 72 35 96 0 13
9 17 35 17 24 0 35 -5 35 -15 0 -8 5 -15 10 -15 6 0 10 -9 10 -20 0 -11 -4
-20 -10 -20 -5 0 -10 -11 -10 -24 0 -13 -7 -40 -15 -59 -8 -20 -15 -47 -15
-61 0 -27 -32 -41 -59 -25 -9 5 -47 16 -86 24 -38 9 -86 20 -105 25 -19 5 -57
14 -85 20 -27 5 -54 15 -59 20 -6 6 -18 10 -28 10 -10 0 -18 4 -18 10 0 5 -7
7 -15 4 -12 -5 -15 4 -15 45 0 28 5 51 10 51 6 0 10 13 10 28 0 38 7 43 55 40
39 -3 40 -4 43 -43z m-5038 -85 c0 -15 7 -47 15 -70 24 -67 19 -100 -18 -136
-68 -65 -144 -91 -208 -72 -32 9 -43 7 -112 -27 -87 -43 -117 -41 -117 5 0 23
5 31 25 36 14 3 25 9 25 13 0 3 19 15 43 26 102 48 58 85 -66 56 -33 -8 -42
-6 -58 10 -38 38 -22 59 66 86 161 50 180 57 193 70 16 16 39 17 44 2 4 -12
53 1 106 27 35 18 62 7 62 -26z m4981 -121 c11 -11 19 -33 19 -52 0 -41 27
-57 140 -82 131 -28 185 -49 188 -74 5 -34 -16 -51 -64 -51 -24 0 -44 4 -44
10 0 5 -12 13 -27 16 -16 4 -53 18 -83 31 -62 28 -180 37 -187 16 -6 -17 -54
-16 -78 0 -21 16 -17 43 26 152 4 11 11 30 14 43 6 20 11 22 42 16 20 -4 44
-15 54 -25z m-5314 -65 c-3 -3 -12 -4 -19 -1 -8 3 -5 6 6 6 11 1 17 -2 13 -5z
m431 -116 c7 -7 12 -26 12 -42 0 -28 -5 -33 -53 -51 -38 -15 -53 -26 -55 -42
-4 -25 6 -29 103 -37 50 -4 64 -9 82 -33 13 -15 23 -31 23 -35 0 -5 -45 -8
-99 -8 -55 0 -103 -4 -106 -10 -3 -5 -30 -25 -59 -45 -29 -19 -68 -50 -87 -68
-19 -18 -49 -42 -66 -52 -29 -17 -35 -18 -48 -5 -8 9 -17 29 -21 47 -5 28 -3
33 25 47 17 9 31 21 31 26 0 6 5 10 10 10 6 0 22 11 37 24 19 18 23 29 18 46
-6 20 -11 22 -55 16 -26 -4 -62 -14 -79 -22 -30 -15 -34 -15 -52 2 -10 9 -19
30 -19 46 0 24 4 28 29 28 16 0 31 6 35 15 3 8 14 15 25 15 11 0 23 5 26 10 3
6 17 10 31 10 13 0 24 4 24 10 0 5 12 12 28 16 15 3 41 12 57 19 17 7 62 27
100 44 79 35 86 36 103 19z m4766 -63 c3 -8 13 -15 22 -15 9 0 32 -7 52 -16
21 -9 52 -22 70 -30 18 -8 42 -14 52 -14 11 0 20 -4 20 -10 0 -5 10 -10 22
-10 12 0 50 -14 85 -32 50 -25 63 -36 61 -52 -2 -13 -14 -23 -35 -28 -26 -7
-44 -3 -94 22 -35 16 -73 30 -85 30 -13 0 -26 4 -29 10 -9 15 -95 50 -121 50
-13 0 -24 5 -24 10 0 6 -7 10 -15 10 -29 0 -65 24 -65 43 0 38 71 65 84 32z
m-84 -145 c0 -5 9 -10 19 -10 10 0 21 -7 25 -15 3 -8 17 -15 31 -15 15 0 63
-17 108 -39 111 -52 154 -71 161 -71 16 0 46 -43 46 -65 0 -29 -27 -46 -67
-43 -65 4 -111 -2 -117 -17 -8 -22 14 -65 34 -65 10 0 27 -8 39 -17 18 -16 19
-21 8 -43 -19 -37 -57 -37 -108 -1 -23 17 -48 31 -56 31 -7 0 -16 7 -19 15 -4
8 -12 15 -20 15 -7 0 -38 20 -68 45 -31 25 -59 45 -63 45 -14 0 -123 55 -123
62 0 9 62 13 142 9 61 -3 98 10 98 35 0 21 -16 34 -75 64 -52 27 -71 63 -43
81 18 12 48 11 48 -1z m-4518 -127 c13 -27 26 -49 31 -51 4 -2 7 -10 7 -18 0
-8 7 -17 15 -20 28 -11 16 -39 -21 -53 -33 -12 -37 -11 -59 13 -44 48 -98 24
-80 -35 9 -26 -20 -59 -52 -59 -12 0 -23 4 -23 9 0 16 -38 23 -60 11 -57 -31
-75 -76 -45 -116 19 -25 19 -39 -1 -58 -45 -45 -100 8 -141 136 -3 11 6 26 26
44 17 14 31 33 31 41 0 10 6 13 16 9 9 -3 30 4 47 16 18 13 48 31 67 42 19 10
42 26 50 36 8 9 24 20 36 24 11 3 34 19 50 35 56 54 77 53 106 -6z m4374 -181
c21 -15 56 -36 77 -47 20 -11 37 -22 37 -26 0 -3 20 -16 45 -28 25 -12 45 -26
45 -29 0 -4 8 -12 18 -17 73 -40 102 -71 102 -108 0 -7 -14 -28 -31 -47 -16
-19 -41 -54 -55 -77 -14 -23 -34 -45 -44 -48 -39 -12 -116 20 -179 75 -36 32
-90 70 -99 70 -5 0 -18 11 -28 25 -10 14 -23 25 -29 25 -15 0 -75 56 -75 70 0
7 9 21 21 31 22 19 42 16 73 -12 10 -10 56 -41 102 -69 46 -28 86 -56 89 -61
4 -5 14 -9 24 -9 10 0 24 -7 31 -15 12 -14 15 -14 31 1 35 32 18 71 -44 103
-15 8 -36 22 -46 33 -11 10 -25 18 -31 18 -6 0 -16 5 -23 10 -56 48 -75 61
-92 66 -19 6 -35 22 -35 35 0 12 50 59 63 59 8 0 32 -12 53 -28z m-4226 -50
c14 -20 31 -41 38 -45 19 -12 44 -79 38 -102 -7 -23 -87 -115 -101 -115 -6 0
-25 -14 -44 -30 -18 -17 -41 -30 -50 -30 -9 0 -34 -20 -56 -45 -43 -49 -75
-57 -107 -28 -23 20 -23 25 2 53 12 13 18 29 16 36 -3 8 1 11 10 7 9 -3 14 2
14 16 0 12 6 21 15 21 8 0 15 9 15 19 0 15 -5 18 -22 14 -13 -3 -27 -11 -33
-17 -23 -26 -65 -40 -93 -30 -52 18 -40 56 33 102 22 14 53 38 69 54 17 15 34
28 39 28 4 0 14 6 21 13 12 11 30 26 116 96 36 29 52 26 80 -17z m235 -274
c24 -24 51 -49 60 -56 8 -7 15 -26 15 -42 0 -26 -4 -30 -26 -30 -14 0 -39 11
-56 25 -38 32 -74 33 -82 3 -9 -35 -7 -45 9 -61 25 -25 30 -89 8 -114 -10 -12
-29 -36 -43 -54 -58 -75 -55 -73 -79 -60 -57 31 -84 91 -40 91 25 0 58 37 59
66 0 11 -7 44 -15 72 -14 45 -14 56 -1 84 16 39 72 98 92 98 8 0 14 5 14 10 0
23 43 7 85 -32z m3589 -128 c23 -8 63 -40 118 -92 10 -10 23 -18 28 -18 6 0
10 -5 10 -11 0 -7 15 -26 33 -43 39 -37 77 -107 77 -141 0 -25 -39 -69 -116
-132 -49 -40 -90 -43 -106 -8 -6 14 -15 25 -20 25 -4 0 -8 7 -8 15 0 8 -7 15
-15 15 -8 0 -15 5 -15 10 0 13 -37 50 -50 50 -5 0 -15 10 -21 23 -17 30 -92
117 -102 117 -15 0 -46 44 -47 65 0 21 78 95 128 121 32 16 70 18 106 4z
m-3189 -196 c11 -13 24 -24 28 -24 4 0 21 -10 37 -22 41 -30 41 -77 0 -138
-16 -25 -30 -51 -30 -57 0 -7 -4 -13 -10 -13 -5 0 -10 -5 -10 -10 0 -20 -64
-142 -77 -147 -7 -3 -13 -10 -13 -17 0 -6 -15 -19 -33 -29 -33 -18 -33 -18
-110 17 -42 20 -77 40 -77 46 0 5 -6 10 -14 10 -9 0 -15 18 -19 53 -6 45 -3
61 24 115 16 34 39 68 49 75 11 6 20 17 20 24 0 7 3 13 8 13 4 0 18 18 32 40
14 22 28 40 32 40 5 0 8 7 8 15 0 8 7 15 15 15 8 0 15 4 15 9 0 11 56 20 85
13 11 -3 29 -15 40 -28z m2858 -47 c9 -8 17 -19 17 -26 0 -6 4 -11 8 -11 10 0
99 -122 112 -153 5 -12 19 -33 30 -46 18 -21 27 -23 73 -19 66 7 77 2 77 -30
0 -38 -7 -44 -77 -82 -60 -31 -64 -32 -88 -16 -14 9 -25 23 -25 31 0 8 -3 15
-8 15 -4 0 -18 23 -32 51 -13 28 -30 53 -37 56 -7 3 -13 11 -13 18 0 7 -4 15
-9 17 -11 4 -101 137 -101 149 0 5 -4 9 -10 9 -18 0 -10 39 12 54 21 15 32 13
71 -17z m-2603 -102 c7 -8 17 -15 24 -15 24 0 96 -36 96 -47 0 -7 5 -13 10
-13 14 0 13 -23 -2 -43 -12 -15 -19 -16 -71 -5 -55 12 -60 11 -73 -7 -20 -27
-17 -62 6 -85 43 -43 15 -86 -49 -75 -32 5 -43 3 -58 -14 -30 -33 -43 -50 -43
-57 0 -3 -9 -19 -21 -35 -22 -32 -44 -36 -73 -14 -18 13 -18 15 0 62 10 26 29
59 41 73 13 14 23 28 23 33 0 4 14 35 30 69 17 33 30 68 30 77 0 10 8 26 18
37 9 10 23 31 29 47 10 20 20 27 42 27 16 0 34 -7 41 -15z m2427 -5 c78 -40
133 -123 133 -198 0 -47 4 -55 45 -98 49 -50 53 -64 29 -88 -22 -23 -67 -20
-96 7 -47 42 -68 57 -78 57 -15 0 -11 -73 5 -94 23 -31 18 -51 -18 -67 -38
-17 -57 -14 -57 7 0 8 -4 14 -9 14 -5 0 -12 12 -16 27 -3 15 -10 30 -13 33 -4
3 -15 23 -26 45 -35 74 -59 120 -78 144 -10 13 -18 28 -18 33 0 5 -9 21 -20
36 -10 15 -22 38 -25 52 -5 23 1 28 77 66 97 48 115 51 165 24z m-3567 -94 c0
-3 -4 -8 -10 -11 -5 -3 -10 -1 -10 4 0 6 5 11 10 11 6 0 10 -2 10 -4z m-36
-41 c-4 -8 -8 -15 -10 -15 -2 0 -4 7 -4 15 0 8 4 15 10 15 5 0 7 -7 4 -15z
m3287 -12 c27 -31 99 -172 99 -195 0 -8 3 -18 7 -22 14 -14 50 -139 46 -157
-8 -27 -57 -66 -94 -74 -19 -3 -44 -11 -56 -17 -16 -8 -30 -6 -61 7 -41 18
-53 38 -87 140 -9 27 -20 54 -24 60 -12 15 -51 130 -51 149 0 9 -4 16 -10 16
-5 0 -10 13 -10 28 0 31 40 62 82 62 12 0 32 7 42 15 33 25 89 19 117 -12z
m-1632 -33 c62 -15 81 -27 81 -53 0 -16 -12 -27 -40 -40 -46 -21 -58 -39 -70
-105 -23 -126 -57 -243 -77 -263 -6 -6 -22 -7 -37 -3 -26 6 -27 10 -23 48 6
46 21 116 43 192 8 28 14 74 14 102 0 47 -3 53 -30 67 -24 13 -30 22 -30 50 0
41 17 47 80 28 25 -7 65 -18 89 -23z m1347 -18 c11 -7 19 -113 26 -370 3 -93
1 -105 -16 -118 -40 -29 -80 -11 -111 49 -6 12 -17 21 -24 19 -7 -1 -10 2 -6
8 8 13 -18 40 -39 40 -12 0 -16 -10 -16 -40 0 -22 -4 -40 -10 -40 -5 0 -10
-15 -10 -34 0 -35 -12 -51 -45 -58 -28 -6 -75 19 -75 40 0 15 -44 138 -70 197
-5 11 -16 45 -26 75 -9 30 -20 57 -24 60 -12 8 -28 76 -21 87 3 6 24 10 46 11
35 1 42 -2 58 -29 9 -17 17 -36 17 -43 0 -14 38 -52 44 -45 13 15 25 51 31 91
8 51 23 63 58 47 22 -10 57 -67 57 -93 0 -23 27 -26 45 -6 12 14 16 30 13 57
-7 54 6 81 44 92 43 12 41 12 54 3z m-1126 -88 c0 -42 4 -55 18 -63 25 -14 42
4 42 44 0 35 27 54 67 47 28 -4 32 -17 22 -77 -4 -28 -8 -90 -8 -140 -1 -79
-22 -223 -37 -247 -3 -4 -18 -8 -34 -8 -37 0 -42 17 -36 125 4 82 0 125 -14
125 -25 0 -48 -41 -58 -108 -18 -107 -36 -130 -91 -111 -34 12 -43 37 -30 82
5 18 14 57 19 87 5 30 14 78 19 105 5 28 10 82 10 122 1 79 3 81 73 75 l38 -4
0 -54z m364 1 c33 -3 63 -10 67 -17 12 -19 -8 -45 -41 -51 -51 -11 -67 -82
-22 -94 22 -5 50 -52 45 -73 -2 -8 -17 -24 -33 -35 -27 -18 -50 -59 -50 -90 0
-23 37 -55 65 -55 30 0 56 -26 48 -47 -6 -15 -189 -18 -212 -4 -12 8 -13 46
-7 232 4 139 11 228 18 237 7 7 22 11 37 8 14 -3 53 -8 85 -11z m-1575 -172
c2 -2 -5 -3 -17 -3 -14 0 -22 6 -22 16 0 14 3 15 18 3 9 -7 19 -15 21 -16z
m688 -435 c-3 -8 -6 -5 -6 6 -1 11 2 17 5 13 3 -3 4 -12 1 -19z m1008 -168 c3
-5 1 -10 -4 -10 -6 0 -11 5 -11 10 0 6 2 10 4 10 3 0 8 -4 11 -10z m205 -50
c0 -5 -4 -10 -10 -10 -5 0 -10 5 -10 10 0 6 5 10 10 10 6 0 10 -4 10 -10z"/>
<path d="M2470 6065 c0 -31 3 -35 27 -35 25 0 25 1 10 18 -19 21 -23 42 -5 24
18 -18 27 -15 21 8 -3 13 -14 20 -29 20 -21 0 -24 -5 -24 -35z"/>
<path d="M5162 5787 c-27 -29 -29 -78 -4 -100 12 -11 36 -17 65 -17 l47 0 0
41 c0 86 -59 128 -108 76z"/>
<path d="M1691 5875 c-1 -12 -6 -26 -12 -32 -7 -7 -8 -13 0 -17 12 -8 26 36
18 56 -3 7 -6 4 -6 -7z"/>
<path d="M3475 5681 c-66 -11 -66 -11 -61 -131 2 -59 7 -113 10 -119 10 -15
46 9 46 30 0 30 28 29 67 -2 26 -22 39 -27 42 -17 2 7 10 17 18 21 9 6 13 17
9 32 -4 14 1 30 14 45 28 33 25 122 -5 134 -26 10 -102 14 -140 7z m79 -69
c12 -19 -7 -52 -29 -52 -32 0 -51 25 -35 45 13 16 55 20 64 7z"/>
<path d="M3788 5653 c-9 -10 -24 -63 -33 -120 -16 -97 -16 -103 1 -132 18 -30
21 -31 86 -31 67 0 68 0 68 26 0 31 -25 53 -57 54 -21 0 -27 8 -20 28 1 4 6 6
10 4 4 -1 15 5 24 13 13 14 14 20 3 41 -8 13 -20 24 -28 24 -7 0 -12 6 -9 13
2 7 23 12 53 12 46 0 49 2 52 27 3 22 -2 28 -30 36 -71 22 -104 23 -120 5z
m39 -242 c23 -7 33 -6 36 2 3 8 11 6 23 -6 18 -17 17 -18 -40 -15 -36 2 -61 8
-64 16 -4 14 3 15 45 3z"/>
<path d="M3168 5653 c-25 -3 -38 -9 -38 -19 0 -8 -4 -14 -10 -14 -5 0 -10 -11
-10 -25 0 -14 4 -25 10 -25 5 0 10 -37 12 -82 2 -54 7 -83 16 -86 6 -2 12 3
12 12 0 10 8 15 22 13 15 -1 26 5 32 18 5 11 26 28 47 38 22 10 39 25 39 33 0
8 6 14 14 14 8 0 16 14 19 33 4 26 -1 37 -24 61 -31 30 -65 37 -141 29z m91
-62 c26 -16 4 -43 -31 -39 -37 3 -52 33 -21 41 29 8 37 7 52 -2z"/>
<path d="M4270 5605 c0 -8 4 -15 10 -15 5 0 7 7 4 15 -4 8 -8 15 -10 15 -2 0
-4 -7 -4 -15z"/>
<path d="M4105 5583 c-34 -8 -55 -34 -55 -68 0 -25 9 -41 40 -69 22 -20 40
-41 40 -46 0 -7 -19 -10 -47 -8 -43 3 -48 1 -51 -18 -8 -54 124 -88 168 -44
11 11 20 25 20 30 0 6 5 10 10 10 6 0 10 10 10 23 0 15 9 26 30 35 23 11 30
20 30 43 0 16 -5 29 -11 29 -8 0 -8 4 -1 13 15 18 -20 51 -37 34 -8 -8 -11 -8
-11 1 0 7 -8 12 -19 12 -10 0 -24 7 -31 15 -12 15 -45 18 -85 8z m-48 -215
c-3 -8 -6 -5 -6 6 -1 11 2 17 5 13 3 -3 4 -12 1 -19z m38 -18 c3 -5 1 -10 -4
-10 -6 0 -11 5 -11 10 0 6 2 10 4 10 3 0 8 -4 11 -10z m75 -15 c-12 -15 -30
-12 -30 6 0 5 10 9 21 9 18 0 19 -2 9 -15z"/>
<path d="M2733 5533 c-24 -2 -43 -8 -43 -14 0 -5 -8 -9 -19 -9 -33 0 -44 -25
-36 -85 3 -30 9 -55 13 -55 4 0 16 -20 27 -45 24 -56 60 -63 76 -15 12 33 32
38 55 15 9 -8 24 -15 35 -15 10 0 19 7 19 15 0 9 9 15 22 15 20 0 20 2 -10 31
-18 17 -32 36 -32 41 0 5 -5 6 -11 2 -6 -3 -4 4 5 18 13 20 14 29 3 59 -13 38
-25 49 -47 47 -8 -1 -34 -3 -57 -5z m19 -69 c10 -9 -4 -44 -18 -44 -17 0 -27
17 -20 35 5 15 28 20 38 9z"/>
<path d="M4364 5465 c-19 -21 -79 -173 -72 -180 4 -4 40 -8 53 -6 6 0 17 21
24 47 7 25 19 50 25 57 20 21 34 73 24 91 -13 22 -29 20 -54 -9z"/>
<path d="M3603 5445 c-6 -14 -9 -25 -6 -25 9 0 33 29 33 39 0 19 -15 11 -27
-14z"/>
<path d="M2454 5403 c-26 -9 -45 -23 -53 -39 -6 -13 -18 -27 -26 -30 -17 -7
-22 -94 -5 -94 6 0 10 -9 10 -19 0 -17 32 -56 74 -89 11 -8 16 -9 16 -2 0 28
79 63 81 36 0 -6 5 2 11 18 8 21 13 25 19 15 6 -10 9 -4 9 19 0 18 6 41 12 52
11 16 9 26 -7 57 -24 45 -31 53 -70 74 -26 13 -35 13 -71 2z m71 -93 c28 -53
18 -93 -25 -103 -48 -11 -87 51 -66 105 8 23 17 28 43 28 26 0 36 -6 48 -30z
m-100 -110 c3 -5 1 -10 -4 -10 -6 0 -11 5 -11 10 0 6 2 10 4 10 3 0 8 -4 11
-10z"/>
<path d="M4511 5394 c-12 -15 -21 -33 -21 -40 0 -8 -4 -14 -10 -14 -5 0 -10
-4 -10 -9 0 -6 -13 -30 -30 -54 -38 -57 -38 -87 0 -115 16 -12 34 -22 40 -22
5 0 10 -4 10 -10 0 -18 81 -11 99 9 9 10 26 21 38 25 25 8 39 44 30 76 -3 11
-1 17 4 14 6 -3 7 12 3 38 -4 24 -13 47 -20 51 -8 4 -14 17 -14 27 0 12 -7 20
-17 20 -10 0 -31 7 -47 15 -35 19 -31 20 -55 -11z m80 -76 c26 -32 24 -63 -6
-86 -27 -21 -56 -19 -76 4 -9 11 -6 24 10 59 24 50 43 56 72 23z m-43 -156 c2
-7 -3 -12 -12 -12 -9 0 -16 7 -16 16 0 17 22 14 28 -4z"/>
<path d="M2193 5263 c-4 -10 -17 -28 -30 -40 -22 -21 -22 -23 -7 -58 8 -21 26
-49 40 -63 13 -15 24 -32 24 -38 0 -5 14 -23 31 -40 19 -18 28 -23 24 -11 -4
9 -2 24 4 31 9 11 9 15 -1 19 -9 4 -7 6 4 6 9 1 18 -3 20 -9 2 -5 3 17 3 50
l1 60 -33 0 c-36 0 -41 13 -18 44 8 11 15 30 15 43 0 20 -5 23 -35 23 -25 0
-38 -5 -42 -17z m31 -139 c3 -8 2 -12 -4 -9 -6 3 -10 10 -10 16 0 14 7 11 14
-7z"/>
<path d="M3566 5261 c-6 -9 9 -51 18 -51 7 0 49 41 45 44 -11 11 -58 16 -63 7z"/>
<path d="M3378 5244 c-16 -8 -28 -21 -28 -29 0 -8 -7 -15 -15 -15 -8 0 -15 -7
-15 -15 0 -19 16 -19 24 0 3 8 12 12 20 9 9 -3 20 3 28 15 15 24 46 28 54 6 7
-17 24 -20 24 -4 0 13 -41 48 -55 48 -5 0 -22 -7 -37 -15z"/>
<path d="M3487 5253 c-11 -11 -8 -21 10 -27 15 -6 32 8 33 27 0 9 -34 9 -43 0z"/>
<path d="M3640 5245 c0 -8 5 -15 10 -15 6 0 10 -7 10 -15 0 -21 12 -19 33 5
22 26 14 40 -24 40 -19 0 -29 -5 -29 -15z"/>
<path d="M4777 5227 c-20 -18 -37 -36 -37 -40 0 -7 -19 -31 -57 -71 -13 -13
-23 -35 -23 -52 1 -26 2 -27 14 -11 19 24 23 21 18 -13 -3 -19 0 -30 8 -30 7
0 10 7 6 15 -6 18 -7 18 33 4 17 -6 31 -16 31 -22 0 -8 3 -8 11 0 8 8 5 17
-10 32 -11 11 -18 27 -15 36 7 17 44 21 44 5 0 -5 7 -10 16 -10 14 0 16 8 11
50 -7 58 8 67 41 25 12 -15 30 -25 46 -25 21 0 26 5 26 25 0 26 -15 34 -23 13
-2 -7 -3 -6 -2 3 1 9 0 21 -4 26 -7 10 -87 73 -93 73 -2 0 -21 -15 -41 -33z"/>
<path d="M3740 5225 c0 -18 5 -25 19 -25 10 0 21 -9 24 -21 6 -20 6 -20 28 2
l22 22 22 -25 c18 -21 24 -23 38 -13 26 19 20 35 -11 35 -15 0 -33 5 -40 12
-9 9 -15 9 -24 0 -19 -19 -35 -14 -42 13 -4 14 -13 25 -21 25 -9 0 -15 -10
-15 -25z"/>
<path d="M3246 5205 c-27 -13 -53 -22 -57 -19 -4 2 -10 0 -14 -6 -3 -5 -1 -10
4 -10 6 0 11 -7 11 -15 0 -8 7 -15 15 -15 8 0 15 7 15 15 0 8 9 15 20 15 11 0
23 7 26 15 4 8 15 15 25 15 10 0 19 7 19 15 0 20 -6 19 -64 -10z"/>
<path d="M3700 5185 c-10 -12 -10 -15 4 -15 9 0 16 7 16 15 0 8 -2 15 -4 15
-2 0 -9 -7 -16 -15z"/>
<path d="M3123 5163 c-18 -7 -16 -23 2 -23 8 0 15 7 15 15 0 8 -1 15 -2 14 -2
0 -9 -3 -15 -6z"/>
<path d="M3940 5160 c0 -6 7 -13 15 -16 8 -4 15 -14 15 -24 0 -10 9 -22 21
-25 24 -8 24 -7 33 23 6 18 3 22 -13 22 -12 0 -21 7 -21 15 0 9 -9 15 -25 15
-14 0 -25 -5 -25 -10z"/>
<path d="M2480 5130 c0 -5 9 -10 20 -10 11 0 20 5 20 10 0 6 -9 10 -20 10 -11
0 -20 -4 -20 -10z"/>
<path d="M3074 5127 c-31 -32 -73 -67 -82 -67 -11 0 -102 -91 -102 -102 0 -4
5 -8 10 -8 6 0 10 -7 10 -16 0 -12 -6 -15 -25 -10 -21 5 -27 2 -36 -20 -15
-42 4 -49 39 -15 17 17 35 31 41 31 6 0 11 7 11 15 0 8 -7 15 -15 15 -22 0
-18 27 5 33 11 3 20 12 20 19 0 8 10 20 23 27 12 6 31 17 43 24 23 14 84 72
84 81 0 10 -14 6 -26 -7z"/>
<path d="M3911 5124 c0 -11 3 -14 6 -6 3 7 2 16 -1 19 -3 4 -6 -2 -5 -13z"/>
<path d="M4047 5100 c-19 -23 -22 -40 -7 -40 6 0 10 5 10 10 0 19 25 10 44
-15 10 -14 25 -25 32 -25 8 0 14 -9 14 -19 0 -11 9 -23 20 -26 11 -3 20 -13
20 -22 0 -8 5 -12 13 -9 6 3 20 9 30 12 9 4 17 13 17 20 0 17 -12 18 -28 2 -8
-8 -15 -8 -27 2 -11 9 -13 16 -5 24 14 14 12 26 -5 26 -8 0 -22 11 -31 25 -9
14 -25 25 -35 25 -11 0 -22 7 -25 15 -8 20 -16 19 -37 -5z"/>
<path d="M3095 5080 c3 -5 8 -10 11 -10 2 0 4 5 4 10 0 6 -5 10 -11 10 -5 0
-7 -4 -4 -10z"/>
<path d="M4998 5058 c-16 -5 -28 -15 -28 -21 0 -7 -27 -40 -60 -74 -33 -34
-60 -69 -60 -78 0 -15 1 -15 16 -1 22 23 44 20 44 -6 0 -20 3 -19 30 12 l31
35 -7 -72 c-5 -67 -4 -73 12 -72 11 0 14 3 7 6 -15 6 -17 33 -3 33 6 0 10 -5
10 -11 0 -7 9 -9 21 -6 16 4 19 2 15 -10 -5 -13 -2 -13 21 2 100 64 135 114
98 141 -14 11 -22 10 -42 -3 -22 -15 -26 -15 -41 1 -14 14 -15 20 -4 37 10 16
10 27 1 54 -15 40 -24 45 -61 33z"/>
<path d="M3050 5045 c0 -8 5 -15 10 -15 6 0 10 7 10 15 0 8 -4 15 -10 15 -5 0
-10 -7 -10 -15z"/>
<path d="M4065 5020 c3 -5 8 -10 11 -10 2 0 4 5 4 10 0 6 -5 10 -11 10 -5 0
-7 -4 -4 -10z"/>
<path d="M3010 5004 c0 -8 5 -12 10 -9 6 4 8 11 5 16 -9 14 -15 11 -15 -7z"/>
<path d="M4720 5007 c0 -8 7 -18 16 -21 11 -4 14 -1 12 11 -4 21 -28 30 -28
10z"/>
<path d="M2957 4973 c-12 -11 -8 -23 8 -23 8 0 15 7 15 15 0 16 -12 20 -23 8z"/>
<path d="M4095 4970 c4 -6 11 -8 16 -5 14 9 11 15 -7 15 -8 0 -12 -5 -9 -10z"/>
<path d="M4243 4953 c-16 -3 -23 -11 -23 -29 0 -13 5 -24 10 -24 6 0 10 6 10
14 0 20 27 27 40 11 14 -16 5 -35 -16 -35 -8 0 -14 -7 -14 -15 0 -8 7 -15 15
-15 8 0 15 7 15 15 0 19 36 20 43 1 3 -8 -1 -17 -9 -20 -27 -10 -18 -38 30
-86 15 -16 17 -22 7 -34 -15 -18 -38 -11 -46 15 -4 11 -11 17 -16 14 -15 -10
-10 -35 6 -35 8 0 15 -9 15 -20 0 -11 7 -23 15 -26 8 -4 15 -15 15 -25 0 -12
7 -19 20 -19 13 0 20 -7 20 -20 0 -26 -30 -26 -37 0 -3 10 -14 22 -25 26 -11
3 -17 12 -14 20 3 7 -4 18 -14 24 -11 6 -20 17 -20 25 0 8 -7 15 -15 15 -8 0
-15 -9 -15 -20 0 -11 7 -20 15 -20 8 0 15 -9 15 -20 0 -11 7 -23 15 -26 8 -4
15 -14 15 -24 0 -10 7 -20 15 -24 8 -3 15 -12 15 -20 0 -10 -6 -13 -15 -10 -8
4 -15 12 -15 19 0 23 -31 27 -37 5 -3 -11 -14 -20 -24 -20 -12 0 -19 -7 -19
-20 0 -12 7 -20 16 -20 12 0 15 -6 10 -25 -5 -20 -3 -25 14 -25 11 0 20 -7 20
-15 0 -8 -9 -15 -20 -15 -13 0 -20 -7 -20 -20 0 -15 -7 -20 -25 -20 -18 0 -25
5 -25 20 0 11 -7 20 -15 20 -8 0 -15 7 -15 15 0 8 -7 15 -15 15 -8 0 -15 -5
-15 -10 0 -6 7 -13 15 -16 8 -4 15 -14 15 -24 0 -10 7 -20 15 -24 8 -3 15 -12
15 -21 0 -8 -7 -15 -15 -15 -9 0 -15 -9 -15 -25 0 -18 4 -23 15 -19 8 4 15 12
15 20 0 16 18 18 40 4 13 -9 13 -11 0 -20 -8 -5 -21 -10 -27 -10 -7 0 -13 -9
-13 -20 0 -11 7 -20 15 -20 8 0 15 7 15 15 0 9 9 15 25 15 16 0 25 -6 25 -15
0 -9 -9 -15 -25 -15 -18 0 -25 -5 -25 -20 0 -29 -29 -25 -40 6 -12 30 -34 27
-38 -5 -3 -15 -8 -21 -19 -17 -8 3 -19 6 -24 6 -5 0 -9 9 -9 21 0 12 -5 19
-12 17 -18 -6 -22 -38 -5 -38 7 0 19 -11 25 -25 6 -14 16 -25 22 -25 5 0 10
-7 10 -15 0 -9 -9 -15 -25 -15 -16 0 -25 -6 -25 -15 0 -8 -7 -15 -15 -15 -8 0
-15 7 -15 15 0 8 7 15 15 15 8 0 15 7 15 15 0 8 -7 15 -15 15 -8 0 -15 -7 -15
-15 0 -8 -9 -15 -19 -15 -10 0 -21 -7 -25 -15 -7 -19 -46 -20 -46 -1 0 25 -19
28 -37 6 -23 -26 -31 -25 -43 5 -10 25 -24 32 -34 16 -9 -14 4 -41 20 -41 21
0 17 -12 -13 -37 -26 -21 -27 -24 -10 -37 21 -16 22 -36 2 -36 -9 0 -15 -9
-15 -25 0 -16 6 -25 15 -25 13 0 20 -13 13 -24 -2 -2 5 -13 15 -24 18 -20 18
-21 -2 -32 -25 -13 -27 -33 -6 -54 20 -20 19 -33 -5 -39 -11 -3 -20 -10 -20
-16 0 -6 9 -15 20 -21 24 -13 27 -40 5 -40 -24 0 -30 -29 -9 -45 18 -15 18
-16 -3 -34 -23 -19 -32 -61 -13 -61 6 0 10 -7 10 -16 0 -10 -6 -14 -15 -10 -9
3 -15 0 -15 -10 0 -8 -11 -19 -24 -25 -13 -6 -27 -20 -29 -30 -3 -11 -14 -19
-26 -19 -12 0 -21 -6 -21 -15 0 -8 -9 -15 -20 -15 -23 0 -25 -9 -9 -44 10 -22
8 -28 -25 -60 -39 -39 -45 -56 -21 -56 8 0 15 7 15 15 0 8 9 15 20 15 13 0 20
-7 20 -20 0 -13 7 -20 20 -20 11 0 20 7 20 15 0 9 9 15 25 15 18 0 25 -5 25
-20 0 -11 5 -20 10 -20 6 0 10 -9 10 -20 0 -11 -4 -20 -10 -20 -5 0 -10 9 -10
20 0 26 -24 26 -42 -1 -12 -19 -17 -20 -36 -10 -12 6 -22 18 -22 26 0 22 -21
18 -27 -6 -4 -12 -11 -18 -20 -15 -8 3 -19 6 -24 6 -5 0 -9 7 -9 15 0 8 -7 15
-15 15 -8 0 -15 -7 -15 -15 0 -8 7 -15 15 -15 8 0 15 -9 15 -19 0 -25 21 -32
42 -14 24 21 46 12 24 -9 -9 -9 -16 -21 -16 -27 0 -16 21 -13 34 5 13 18 46 9
46 -12 0 -8 7 -17 15 -20 17 -7 21 -44 4 -44 -6 0 -16 -6 -23 -13 -11 -10 -11
-15 0 -25 10 -9 16 -7 28 9 9 13 21 19 30 16 19 -7 10 -37 -10 -37 -8 0 -14
-7 -14 -15 0 -20 20 -19 35 2 7 9 17 13 23 9 19 -11 14 -26 -8 -26 -15 0 -20
-7 -20 -25 0 -15 -6 -25 -14 -25 -16 0 -29 -27 -16 -35 4 -3 16 2 24 11 10 9
24 13 34 9 15 -6 15 -8 -5 -25 -26 -21 -30 -50 -7 -50 20 0 13 -24 -9 -28 -10
-2 -17 3 -17 12 0 9 -8 16 -20 16 -26 0 -26 -15 0 -33 24 -17 17 -47 -11 -47
-10 0 -19 -7 -19 -15 0 -8 6 -15 14 -15 16 0 25 -19 19 -37 -7 -20 -33 -15
-33 6 0 20 -25 35 -41 25 -5 -3 -9 -12 -9 -21 0 -10 -6 -13 -16 -9 -9 3 -18 6
-20 6 -2 0 -4 7 -4 15 0 8 -9 15 -20 15 -27 0 -27 -36 0 -43 13 -3 18 -10 14
-21 -8 -22 -31 -20 -44 4 -13 23 -40 27 -40 5 0 -8 -6 -15 -13 -15 -7 0 -20
-9 -30 -20 -15 -18 -47 -18 -47 0 0 4 -13 22 -29 39 -28 30 -30 31 -40 12 -12
-21 -51 -18 -51 5 0 22 -20 27 -39 10 -24 -22 -41 -20 -41 4 0 13 7 20 20 20
22 0 27 15 8 26 -6 4 -16 0 -23 -9 -16 -23 -32 -21 -45 3 -14 26 -40 26 -40 0
0 -13 5 -18 15 -14 10 4 18 -3 25 -20 5 -15 17 -29 25 -32 8 -4 15 -12 15 -20
0 -8 7 -14 15 -14 9 0 15 -9 15 -25 0 -31 16 -32 46 -4 25 23 44 18 44 -12 0
-25 22 -25 38 1 13 21 42 17 42 -6 0 -8 6 -14 14 -14 12 0 26 -20 26 -36 0 -3
-11 -9 -25 -14 -27 -10 -32 -24 -13 -36 6 -4 19 3 30 15 20 25 48 22 48 -5 0
-9 7 -22 17 -29 9 -7 13 -17 9 -23 -11 -18 -20 -14 -31 10 -13 31 -45 36 -45
9 0 -14 -6 -21 -18 -21 -10 0 -28 -14 -41 -31 -26 -34 -21 -51 7 -26 10 10 24
17 30 17 7 0 12 7 12 15 0 8 9 15 19 15 36 0 35 -30 -1 -43 -25 -9 -23 -37 2
-37 11 0 20 -6 20 -12 0 -7 4 -20 10 -28 7 -12 12 -11 29 9 19 22 21 22 28 5
4 -10 2 -19 -5 -22 -15 -5 -16 -42 -2 -42 6 0 13 7 16 15 4 8 12 15 20 15 19
0 18 -29 -1 -36 -8 -4 -15 -12 -15 -20 0 -17 5 -17 30 -2 25 16 38 3 22 -22
-12 -20 -7 -50 9 -50 4 0 6 -7 2 -16 -4 -12 -14 -14 -37 -11 -17 3 -25 3 -18
0 18 -7 15 -23 -6 -23 -10 0 -33 13 -52 30 -30 27 -34 28 -45 13 -7 -10 -19
-14 -29 -10 -9 4 -16 2 -16 -2 0 -17 -34 -22 -42 -6 -10 17 -48 21 -48 5 0
-16 -40 -12 -46 5 -8 20 -31 19 -44 -2 -8 -13 -13 -15 -16 -5 -3 7 -19 19 -35
27 -16 9 -29 22 -29 30 0 20 -26 19 -34 -1 -3 -8 -10 -13 -15 -10 -5 3 -14 -1
-21 -9 -14 -17 -40 -20 -40 -6 0 5 7 17 16 26 15 15 15 17 -2 30 -11 8 -22 15
-26 15 -5 0 -8 7 -8 15 0 8 -7 15 -15 15 -8 0 -15 6 -15 14 0 7 -18 33 -40 56
-22 23 -40 47 -40 52 0 5 -7 17 -16 26 -15 14 -15 17 0 27 24 18 21 38 -3 25
-25 -13 -36 2 -21 30 9 18 8 20 -14 20 -20 0 -23 4 -19 21 4 12 0 25 -8 30
-20 13 -27 11 -32 -8 -3 -10 -3 1 0 25 5 34 3 42 -11 42 -9 0 -16 -7 -16 -15
0 -8 -4 -15 -10 -15 -5 0 -10 7 -10 15 0 8 5 15 10 15 6 0 10 11 10 25 0 14
-4 25 -10 25 -5 0 -10 7 -10 15 0 8 5 15 10 15 6 0 10 6 10 13 0 8 -10 13 -22
13 -19 -1 -23 4 -20 26 1 14 -2 29 -8 33 -5 3 -10 -1 -10 -9 0 -9 -7 -16 -15
-16 -8 0 -15 7 -15 15 0 8 5 15 10 15 6 0 10 11 10 25 0 16 -6 25 -15 25 -22
0 -18 27 5 33 11 3 20 10 20 16 0 6 -9 11 -20 11 -11 0 -20 -4 -20 -10 0 -5
-5 -10 -12 -10 -11 0 -138 -123 -138 -134 0 -10 -39 -46 -50 -46 -5 0 -10 -4
-10 -9 0 -5 -10 -13 -22 -17 -13 -4 -25 -9 -28 -13 -11 -13 -149 -101 -159
-101 -6 0 -11 -4 -11 -10 0 -5 -6 -10 -13 -10 -7 0 -18 -5 -24 -11 -7 -7 -37
-20 -68 -31 -31 -10 -62 -23 -68 -29 -7 -5 -32 -21 -57 -33 -44 -23 -45 -25
-51 -82 -6 -67 -2 -94 15 -94 6 0 36 -24 67 -53 55 -50 197 -147 217 -147 6 0
12 -3 14 -7 2 -5 27 -19 56 -32 28 -14 52 -28 52 -33 0 -4 8 -8 18 -8 20 -1
73 -29 54 -30 -8 0 -6 -7 7 -21 24 -26 19 -40 -56 -154 -77 -117 -85 -128
-110 -150 -43 -39 -43 -137 0 -151 12 -4 24 -9 27 -13 11 -13 93 -53 138 -67
65 -20 158 -2 202 38 17 15 34 28 38 28 4 0 22 24 40 54 27 45 32 64 32 115 0
60 -22 137 -45 156 -6 6 -14 18 -18 28 -4 9 -17 21 -29 26 -21 8 -21 10 -5 16
9 4 23 3 30 -2 6 -6 42 -18 80 -28 37 -10 67 -22 67 -26 0 -5 11 -9 24 -9 14
0 28 -5 31 -10 3 -6 21 -10 38 -10 50 0 65 -14 35 -34 -27 -18 -52 -74 -63
-141 -6 -41 -26 -115 -51 -195 -19 -63 -26 -123 -16 -138 18 -26 273 -78 322
-65 34 9 38 93 4 93 -8 0 -14 5 -14 10 0 6 -15 10 -34 10 -18 0 -46 4 -62 9
-16 5 -41 12 -56 15 -24 5 -28 11 -28 40 0 49 20 61 74 46 24 -6 58 -9 75 -5
29 6 31 10 31 50 0 40 -2 44 -32 53 -18 6 -50 13 -71 17 -34 5 -38 9 -35 32 5
40 28 49 90 34 29 -7 76 -11 103 -9 50 3 50 3 53 41 4 49 -11 62 -83 71 -33 4
-65 12 -72 19 -10 9 24 11 158 9 125 -3 174 0 185 9 11 9 18 9 26 1 13 -13 57
-16 74 -4 5 4 17 18 26 31 l17 24 19 -32 c18 -29 21 -31 35 -17 18 19 39 20
54 5 8 -8 17 -8 32 0 11 6 31 16 42 22 12 6 49 13 83 15 33 2 62 8 64 14 5 14
32 13 32 -2 0 -8 3 -9 8 -3 12 17 108 45 156 45 26 0 67 10 98 24 29 13 70 27
91 30 20 4 37 10 37 14 0 5 23 16 51 26 l51 19 -6 49 c-9 65 -13 73 -42 86
-13 7 -24 16 -24 22 0 5 -5 10 -11 10 -12 0 -92 59 -97 72 -2 5 -7 8 -12 8 -5
0 -22 12 -38 28 -49 46 -104 92 -169 141 -36 26 -63 54 -63 64 0 9 -5 17 -11
17 -20 0 -37 27 -32 52 3 14 0 35 -7 47 -9 17 -8 25 5 37 9 9 13 24 10 35 -4
10 -3 24 2 31 12 20 33 81 33 99 0 9 7 19 15 23 8 3 15 11 15 18 0 7 11 22 25
32 14 10 25 23 25 28 0 5 11 19 25 32 14 13 28 38 31 55 4 18 13 35 20 38 8 3
14 18 14 34 0 16 5 29 10 29 6 0 10 10 10 23 0 12 7 31 15 41 8 11 15 30 15
43 0 14 6 23 15 23 9 0 15 9 15 23 0 26 38 67 61 67 8 0 22 21 32 48 11 26 23
56 27 67 5 11 11 34 14 50 24 145 40 221 47 223 5 2 11 20 15 40 4 20 10 39
13 42 14 12 32 80 37 140 4 56 2 69 -16 87 -11 12 -17 29 -14 37 5 12 0 16
-20 16 -16 0 -26 6 -26 15 0 8 5 15 10 15 6 0 10 30 10 70 0 40 -4 70 -10 70
-5 0 -10 9 -10 20 0 11 5 20 10 20 6 0 10 16 10 35 0 19 -4 35 -10 35 -5 0
-10 7 -10 15 0 8 5 15 10 15 6 0 10 9 10 20 0 11 -4 20 -10 20 -6 0 -10 31
-10 74 0 48 -4 76 -12 78 -6 2 -12 27 -13 56 -2 41 -7 55 -26 71 -19 16 -21
22 -10 30 11 7 10 15 -4 45 -19 41 -35 55 -35 32 0 -24 -17 -28 -36 -9 -16 17
-16 18 5 23 l23 5 -21 24 c-12 13 -21 28 -21 34 0 9 -48 59 -53 56 -1 -1 -12
-4 -24 -6z m157 -162 c0 -14 -18 -23 -30 -16 -6 4 -8 11 -5 16 8 12 35 12 35
0z m-13 -95 c-6 -17 -31 -13 -35 6 -2 12 2 15 18 11 11 -3 19 -11 17 -17z m41
-44 c3 -9 -2 -13 -14 -10 -9 1 -19 9 -22 16 -3 9 2 13 14 10 9 -1 19 -9 22
-16z m-134 -107 c-4 -8 -12 -15 -19 -15 -7 0 -15 7 -19 15 -4 11 1 15 19 15
18 0 23 -4 19 -15z m80 -4 c7 -11 -14 -20 -31 -13 -7 2 -10 8 -7 13 7 12 31
12 38 0z m76 -11 c0 -5 -4 -10 -10 -10 -5 0 -10 5 -10 10 0 6 5 10 10 10 6 0
10 -4 10 -10z m-120 -36 c0 -8 -9 -14 -20 -14 -19 0 -27 19 -14 33 10 9 34 -4
34 -19z m80 -4 c0 -5 -7 -10 -15 -10 -8 0 -15 5 -15 10 0 6 7 10 15 10 8 0 15
-4 15 -10z m-50 -41 c0 -5 -9 -9 -20 -9 -19 0 -26 11 -14 23 8 8 34 -3 34 -14z
m-48 -34 c0 -5 -5 -11 -11 -13 -6 -2 -11 4 -11 13 0 9 5 15 11 13 6 -2 11 -8
11 -13z m88 1 c0 -2 -7 -9 -15 -16 -12 -10 -15 -10 -15 4 0 9 7 16 15 16 8 0
15 -2 15 -4z m-122 -38 c-7 -19 -38 -22 -38 -4 0 10 9 16 21 16 12 0 19 -5 17
-12z m70 -5 c-4 -22 -22 -20 -26 1 -2 10 3 16 13 16 10 0 15 -7 13 -17z m-38
-42 c0 -18 -18 -21 -30 -6 -10 13 -9 15 9 15 11 0 21 -4 21 -9z m70 -11 c0 -5
-5 -10 -11 -10 -5 0 -7 5 -4 10 3 6 8 10 11 10 2 0 4 -4 4 -10z m-40 -30 c0
-5 -7 -10 -16 -10 -8 0 -12 5 -9 10 3 6 10 10 16 10 5 0 9 -4 9 -10z m-40 -45
c0 -8 -7 -15 -15 -15 -8 0 -15 7 -15 15 0 8 7 15 15 15 8 0 15 -7 15 -15z
m-122 -28 c3 -12 -4 -17 -22 -17 -27 0 -37 24 -13 33 19 8 32 2 35 -16z m82
-2 c11 -13 8 -15 -14 -15 -16 0 -26 5 -26 15 0 8 6 15 14 15 7 0 19 -7 26 -15z
m70 -15 c0 -5 -7 -7 -15 -4 -8 4 -15 8 -15 10 0 2 7 4 15 4 8 0 15 -4 15 -10z
m-119 -33 c-5 -5 -17 -7 -26 -3 -14 5 -15 9 -5 21 10 12 16 13 27 4 9 -8 10
-16 4 -22z m79 3 c0 -5 -4 -10 -10 -10 -5 0 -10 5 -10 10 0 6 5 10 10 10 6 0
10 -4 10 -10z m-130 -37 c0 -10 -4 -14 -8 -8 -4 6 -11 13 -16 18 -5 4 -2 7 7
7 10 0 17 -8 17 -17z m-204 -18 c-5 -20 -3 -25 14 -25 11 0 20 -7 20 -15 0 -8
-9 -15 -20 -15 -11 0 -20 6 -20 13 0 7 -9 18 -20 25 -29 18 -25 42 6 42 23 0
25 -3 20 -25z m79 -15 c-9 -15 -32 -12 -39 5 -3 9 0 15 9 15 8 0 15 6 15 13 0
6 5 4 11 -6 5 -9 7 -22 4 -27z m205 30 c0 -5 -4 -10 -10 -10 -5 0 -10 5 -10
10 0 6 5 10 10 10 6 0 10 -4 10 -10z m-130 -25 c0 -8 -7 -15 -15 -15 -8 0 -15
7 -15 15 0 8 7 15 15 15 8 0 15 -7 15 -15z m-200 -24 c0 -16 -28 -20 -34 -5
-4 9 1 14 14 14 11 0 20 -4 20 -9z m450 -11 c0 -5 -8 -10 -17 -10 -15 0 -16 2
-3 10 19 12 20 12 20 0z m80 0 c0 -5 -5 -10 -11 -10 -5 0 -7 5 -4 10 3 6 8 10
11 10 2 0 4 -4 4 -10z m50 -56 c0 -18 -26 -18 -33 0 -3 8 -3 16 0 19 9 10 33
-5 33 -19z m-600 -14 c0 -5 -2 -10 -4 -10 -3 0 -8 5 -11 10 -3 6 -1 10 4 10 6
0 11 -4 11 -10z m80 -16 c0 -17 -22 -14 -28 4 -2 7 3 12 12 12 9 0 16 -7 16
-16z m470 -4 c0 -5 -2 -10 -4 -10 -3 0 -8 5 -11 10 -3 6 -1 10 4 10 6 0 11 -4
11 -10z m-300 -10 c0 -5 -2 -10 -4 -10 -3 0 -8 5 -11 10 -3 6 -1 10 4 10 6 0
11 -4 11 -10z m380 0 c0 -5 -7 -7 -15 -4 -8 4 -15 8 -15 10 0 2 7 4 15 4 8 0
15 -4 15 -10z m-590 -20 c0 -5 -4 -10 -10 -10 -5 0 -10 5 -10 10 0 6 5 10 10
10 6 0 10 -4 10 -10z m90 -5 c0 -8 -7 -15 -15 -15 -8 0 -15 7 -15 15 0 8 7 15
15 15 8 0 15 -7 15 -15z m84 -10 c-4 -8 -10 -15 -15 -15 -5 0 -9 7 -9 15 0 8
7 15 15 15 9 0 12 -6 9 -15z m70 -16 c-3 -5 -10 -7 -15 -3 -5 3 -7 10 -3 15 3
5 10 7 15 3 5 -3 7 -10 3 -15z m81 1 c3 -5 1 -10 -4 -10 -6 0 -11 5 -11 10 0
6 2 10 4 10 3 0 8 -4 11 -10z m-285 -15 c0 -8 5 -15 11 -15 10 0 39 -24 39
-33 0 -5 51 -67 88 -104 12 -13 22 -30 22 -38 0 -25 -36 -17 -48 10 -6 14 -16
25 -22 25 -5 0 -10 9 -10 20 0 10 -9 24 -20 30 -11 6 -20 17 -20 25 0 7 -9 17
-20 20 -11 3 -20 15 -20 26 0 10 -7 19 -15 19 -8 0 -15 7 -15 15 0 8 7 15 15
15 8 0 15 -7 15 -15z m88 -2 c2 -8 -5 -13 -17 -13 -12 0 -21 6 -21 16 0 18 31
15 38 -3z m82 -13 c0 -23 -25 -27 -33 -6 -7 16 1 26 20 26 7 0 13 -9 13 -20z
m377 4 c-3 -3 -12 -4 -19 -1 -8 3 -5 6 6 6 11 1 17 -2 13 -5z m-594 -18 c6
-15 -1 -26 -15 -26 -4 0 -8 9 -8 20 0 23 15 27 23 6z m297 4 c0 -5 -7 -10 -15
-10 -8 0 -15 5 -15 10 0 6 7 10 15 10 8 0 15 -4 15 -10z m80 -5 c0 -8 -7 -15
-15 -15 -9 0 -12 6 -9 15 4 8 10 15 15 15 5 0 9 -7 9 -15z m-210 -20 c0 -8 -9
-15 -20 -15 -11 0 -20 7 -20 15 0 8 9 15 20 15 11 0 20 -7 20 -15z m80 -15 c0
-5 -4 -10 -10 -10 -5 0 -10 5 -10 10 0 6 5 10 10 10 6 0 10 -4 10 -10z m92
-12 c-5 -5 -17 -6 -26 -2 -13 5 -14 9 -5 14 16 11 43 0 31 -12z m-292 -3 c0
-8 -9 -15 -20 -15 -11 0 -20 7 -20 15 0 8 9 15 20 15 11 0 20 -7 20 -15z m360
0 c0 -8 -4 -15 -10 -15 -5 0 -10 7 -10 15 0 8 5 15 10 15 6 0 10 -7 10 -15z
m-193 -25 c6 -23 33 -27 33 -5 0 9 9 15 25 15 16 0 25 -6 25 -15 0 -8 -8 -15
-19 -15 -11 0 -21 -9 -24 -21 -7 -28 -41 -21 -45 9 -2 12 -10 22 -18 22 -8 0
-14 7 -14 15 0 22 31 18 37 -5z m-223 -22 c-3 -4 -11 -5 -20 -1 -11 4 -12 8
-3 20 10 11 14 11 20 1 4 -6 6 -15 3 -20z m386 18 c0 -8 -9 -18 -20 -21 -24
-8 -26 -33 -3 -50 9 -7 13 -17 9 -23 -9 -15 -36 -4 -36 14 0 8 -7 14 -15 14
-8 0 -15 -2 -15 -4 0 -2 -3 -11 -6 -19 -3 -9 3 -16 15 -20 14 -3 19 -10 15
-21 -8 -22 -25 -20 -31 3 -7 28 -31 34 -43 11 -14 -26 -40 -26 -40 0 0 11 7
20 15 20 8 0 15 7 15 15 0 10 10 15 30 15 23 0 30 5 30 19 0 11 9 22 19 26 11
3 22 12 25 20 7 19 36 19 36 1z m-300 -21 c-7 -8 -16 -15 -21 -15 -5 0 -9 7
-9 15 0 9 9 15 21 15 18 0 19 -2 9 -15z m380 -1 c0 -2 -7 -4 -15 -4 -8 0 -15
4 -15 10 0 5 7 7 15 4 8 -4 15 -8 15 -10z m-430 -35 c0 -5 -7 -9 -15 -9 -9 0
-12 6 -9 15 6 15 24 11 24 -6z m380 6 c0 -8 -7 -15 -15 -15 -16 0 -20 12 -8
23 11 12 23 8 23 -8z m-280 -9 c0 -14 -29 -31 -38 -22 -2 3 -2 12 1 21 8 19
37 20 37 1z m-140 -36 c0 -5 -7 -10 -15 -10 -8 0 -15 5 -15 10 0 6 7 10 15 10
8 0 15 -4 15 -10z m85 0 c3 -6 -1 -13 -10 -16 -19 -8 -30 0 -20 15 8 14 22 14
30 1z m85 -15 c0 -8 -7 -15 -15 -15 -8 0 -15 7 -15 15 0 8 7 15 15 15 8 0 15
-7 15 -15z m-140 -25 c0 -5 -2 -10 -4 -10 -3 0 -8 5 -11 10 -3 6 -1 10 4 10 6
0 11 -4 11 -10z m93 -18 c-2 -17 2 -22 22 -22 18 0 25 5 25 19 0 19 23 35 34
24 3 -4 6 -14 6 -24 0 -29 21 -34 41 -8 14 18 21 21 30 12 13 -13 4 -33 -17
-33 -8 0 -14 -7 -14 -15 0 -8 -9 -15 -20 -15 -13 0 -20 7 -20 20 0 24 -38 28
-46 5 -9 -23 -33 -18 -46 10 -6 14 -17 25 -25 25 -14 0 -17 12 -6 24 14 14 38
0 36 -22z m-140 -16 c6 -15 -1 -26 -15 -26 -4 0 -8 9 -8 20 0 23 15 27 23 6z
m377 -2 c0 -8 -4 -12 -10 -9 -5 3 -10 10 -10 16 0 5 5 9 10 9 6 0 10 -7 10
-16z m-280 -13 c0 -16 -28 -20 -34 -5 -4 9 1 14 14 14 11 0 20 -4 20 -9z m238
-20 c11 -7 11 -9 -1 -14 -16 -6 -27 0 -27 15 0 10 11 10 28 -1z m-294 -16 c3
-9 0 -15 -9 -15 -8 0 -15 7 -15 15 0 8 4 15 9 15 5 0 11 -7 15 -15z m117 -35
c10 0 19 7 19 15 0 8 9 15 20 15 11 0 20 -7 20 -15 0 -9 -9 -15 -21 -15 -12 0
-23 -8 -26 -20 -8 -30 -43 -26 -43 5 0 16 -6 25 -15 25 -18 0 -20 27 -2 33 6
2 16 -7 20 -19 5 -14 17 -24 28 -24z m256 28 c-3 -8 -6 -5 -6 6 -1 11 2 17 5
13 3 -3 4 -12 1 -19z m-117 -23 c0 -8 -7 -15 -15 -15 -8 0 -15 7 -15 15 0 8 7
15 15 15 8 0 15 -7 15 -15z m75 -5 c3 -5 -1 -10 -9 -10 -9 0 -16 5 -16 10 0 6
4 10 9 10 6 0 13 -4 16 -10z m-117 -27 c-2 -10 -10 -18 -18 -18 -8 0 -16 8
-18 18 -2 12 3 17 18 17 15 0 20 -5 18 -17z m72 -8 c0 -8 -4 -15 -9 -15 -13 0
-22 16 -14 24 11 11 23 6 23 -9z m-210 -19 c0 -3 -4 -8 -10 -11 -5 -3 -10 -1
-10 4 0 6 5 11 10 11 6 0 10 -2 10 -4z m86 -7 c10 -17 -13 -36 -27 -22 -12 12
-4 33 11 33 5 0 12 -5 16 -11z m84 -14 c0 -8 -7 -15 -15 -15 -8 0 -15 7 -15
15 0 8 7 15 15 15 8 0 15 -7 15 -15z m-130 -30 c0 -8 -7 -15 -15 -15 -8 0 -15
7 -15 15 0 8 7 15 15 15 8 0 15 -7 15 -15z m85 -5 c0 -22 -29 -18 -33 3 -3 14
1 18 15 15 10 -2 18 -10 18 -18z m-387 -2 c-6 -18 -28 -21 -28 -4 0 9 7 16 16
16 9 0 14 -5 12 -12z m462 -9 c0 -5 -4 -9 -10 -9 -5 0 -10 7 -10 16 0 8 5 12
10 9 6 -3 10 -10 10 -16z m87 -5 c-3 -3 -12 -4 -19 -1 -8 3 -5 6 6 6 11 1 17
-2 13 -5z m83 -9 c0 -8 -4 -15 -10 -15 -5 0 -7 7 -4 15 4 8 8 15 10 15 2 0 4
-7 4 -15z m-300 -20 c0 -8 -2 -15 -4 -15 -2 0 -6 7 -10 15 -3 8 -1 15 4 15 6
0 10 -7 10 -15z m90 -6 c0 -5 -9 -9 -20 -9 -22 0 -27 16 -7 23 15 5 27 -1 27
-14z m-380 1 c0 -5 -7 -10 -15 -10 -8 0 -15 5 -15 10 0 6 7 10 15 10 8 0 15
-4 15 -10z m457 -12 c-3 -8 -6 -5 -6 6 -1 11 2 17 5 13 3 -3 4 -12 1 -19z m83
-8 c0 -5 -2 -10 -4 -10 -3 0 -8 5 -11 10 -3 6 -1 10 4 10 6 0 11 -4 11 -10z
m-582 -18 c2 -7 -6 -12 -17 -12 -21 0 -27 11 -14 24 9 9 26 2 31 -12z m382 -2
c0 -5 -7 -10 -15 -10 -8 0 -15 5 -15 10 0 6 7 10 15 10 8 0 15 -4 15 -10z m65
1 c3 -5 1 -12 -5 -16 -5 -3 -10 1 -10 9 0 18 6 21 15 7z m-365 -10 c0 -5 -7
-11 -15 -15 -9 -3 -15 0 -15 9 0 8 7 15 15 15 8 0 15 -4 15 -9z m250 -27 c0
-2 -7 -4 -15 -4 -8 0 -15 4 -15 10 0 5 7 7 15 4 8 -4 15 -8 15 -10z m-220 -9
c0 -8 -7 -15 -15 -15 -16 0 -20 12 -8 23 11 12 23 8 23 -8z m300 0 c0 -8 -7
-15 -15 -15 -8 0 -15 7 -15 15 0 8 7 15 15 15 8 0 15 -7 15 -15z m-53 -37 c-3
-8 -6 -5 -6 6 -1 11 2 17 5 13 3 -3 4 -12 1 -19z m83 -4 c0 -8 -5 -12 -10 -9
-6 4 -8 11 -5 16 9 14 15 11 15 -7z m-40 -39 c0 -8 -4 -15 -10 -15 -5 0 -10 7
-10 15 0 8 5 15 10 15 6 0 10 -7 10 -15z m-385 -5 c3 -5 -1 -10 -9 -10 -9 0
-16 5 -16 10 0 6 4 10 9 10 6 0 13 -4 16 -10z m340 -30 c3 -5 -1 -10 -9 -10
-9 0 -16 5 -16 10 0 6 4 10 9 10 6 0 13 -4 16 -10z m-295 -15 c0 -8 -4 -15 -9
-15 -5 0 -14 7 -21 15 -10 13 -9 15 9 15 12 0 21 -6 21 -15z m237 -37 c-3 -8
-6 -5 -6 6 -1 11 2 17 5 13 3 -3 4 -12 1 -19z m93 7 c0 -8 -4 -15 -10 -15 -5
0 -10 7 -10 15 0 8 5 15 10 15 6 0 10 -7 10 -15z m-300 -10 c0 -8 -4 -15 -10
-15 -5 0 -10 7 -10 15 0 8 5 15 10 15 6 0 10 -7 10 -15z m165 -25 c3 -5 1 -10
-4 -10 -6 0 -11 5 -11 10 0 6 2 10 4 10 3 0 8 -4 11 -10z m90 0 c3 -5 -1 -10
-10 -10 -9 0 -13 5 -10 10 3 6 8 10 10 10 2 0 7 -4 10 -10z m-215 -25 c0 -8
-7 -15 -15 -15 -8 0 -15 7 -15 15 0 8 7 15 15 15 8 0 15 -7 15 -15z m75 -5 c3
-5 1 -10 -4 -10 -6 0 -11 5 -11 10 0 6 2 10 4 10 3 0 8 -4 11 -10z m95 -10 c0
-5 -4 -10 -10 -10 -5 0 -10 5 -10 10 0 6 5 10 10 10 6 0 10 -4 10 -10z m80
-10 c0 -5 -7 -7 -15 -4 -8 4 -15 8 -15 10 0 2 7 4 15 4 8 0 15 -4 15 -10z
m-210 -20 c0 -5 -7 -10 -15 -10 -8 0 -15 5 -15 10 0 6 7 10 15 10 8 0 15 -4
15 -10z m80 -10 c0 -5 -7 -10 -15 -10 -8 0 -15 5 -15 10 0 6 7 10 15 10 8 0
15 -4 15 -10z m77 -12 c-3 -8 -6 -5 -6 6 -1 11 2 17 5 13 3 -3 4 -12 1 -19z
m-197 -18 c0 -5 -9 -10 -21 -10 -11 0 -17 5 -14 10 3 6 13 10 21 10 8 0 14 -4
14 -10z m80 -10 c0 -5 -4 -10 -10 -10 -5 0 -10 5 -10 10 0 6 5 10 10 10 6 0
10 -4 10 -10z m80 -4 c0 -3 -4 -8 -10 -11 -5 -3 -10 -1 -10 4 0 6 5 11 10 11
6 0 10 -2 10 -4z m-126 -24 c2 -4 0 -14 -5 -22 -8 -13 -10 -13 -19 0 -5 8 -10
18 -10 23 0 10 28 9 34 -1z m-34 -48 c0 -7 7 -20 16 -29 13 -12 14 -19 5 -28
-14 -14 -32 8 -24 29 3 7 -5 14 -19 16 -15 2 -24 11 -26 26 -3 20 -1 21 22 11
14 -7 26 -18 26 -25z m110 26 c0 -5 -4 -10 -10 -10 -5 0 -10 5 -10 10 0 6 5
10 10 10 6 0 10 -4 10 -10z m-42 -28 c2 -7 -3 -12 -12 -12 -9 0 -16 7 -16 16
0 17 22 14 28 -4z m82 -2 c0 -5 -5 -10 -11 -10 -5 0 -7 5 -4 10 3 6 8 10 11
10 2 0 4 -4 4 -10z m-1313 -6 c-3 -3 -12 -4 -19 -1 -8 3 -5 6 6 6 11 1 17 -2
13 -5z m1151 -66 c-7 -19 -38 -22 -38 -4 0 10 9 16 21 16 12 0 19 -5 17 -12z
m72 -8 c0 -5 -8 -10 -17 -10 -15 0 -16 2 -3 10 19 12 20 12 20 0z m-120 -25
c0 -8 -9 -15 -20 -15 -11 0 -20 7 -20 15 0 8 9 15 20 15 11 0 20 -7 20 -15z
m70 -15 c0 -5 -4 -10 -10 -10 -5 0 -10 5 -10 10 0 6 5 10 10 10 6 0 10 -4 10
-10z m-50 -40 c0 -5 -4 -10 -10 -10 -5 0 -10 5 -10 10 0 6 5 10 10 10 6 0 10
-4 10 -10z m-496 -25 c3 -10 -1 -15 -13 -15 -10 0 -21 7 -25 15 -3 10 1 15 13
15 10 0 21 -7 25 -15z m376 0 c0 -8 -7 -15 -15 -15 -8 0 -15 7 -15 15 0 8 7
15 15 15 8 0 15 -7 15 -15z m-300 -10 c0 -8 -4 -15 -9 -15 -13 0 -22 16 -14
24 11 11 23 6 23 -9z m380 5 c0 -5 -7 -10 -16 -10 -8 0 -12 5 -9 10 3 6 10 10
16 10 5 0 9 -4 9 -10z m-210 -26 c0 -9 -7 -14 -17 -12 -25 5 -28 28 -4 28 12
0 21 -6 21 -16z m88 -2 c2 -7 -5 -12 -17 -12 -14 0 -19 5 -14 15 6 17 25 15
31 -3z m72 -12 c0 -5 -8 -10 -17 -10 -15 0 -16 2 -3 10 19 12 20 12 20 0z
m-200 -15 c0 -8 -7 -15 -15 -15 -8 0 -15 7 -15 15 0 8 7 15 15 15 8 0 15 -7
15 -15z m80 -11 c0 -2 -9 -4 -21 -4 -11 0 -18 4 -14 10 5 8 35 3 35 -6z m-50
-39 c0 -8 -7 -15 -15 -15 -8 0 -15 7 -15 15 0 8 7 15 15 15 8 0 15 -7 15 -15z
m80 -15 c0 -5 -2 -10 -4 -10 -3 0 -8 5 -11 10 -3 6 -1 10 4 10 6 0 11 -4 11
-10z m-50 -36 c0 -17 -22 -14 -28 4 -2 7 3 12 12 12 9 0 16 -7 16 -16z m-813
-71 c-3 -10 -5 -4 -5 12 0 17 2 24 5 18 2 -7 2 -21 0 -30z m805 -8 c0 -5 -5
-11 -11 -13 -6 -2 -11 4 -11 13 0 9 5 15 11 13 6 -2 11 -8 11 -13z m-34 -37
c-3 -7 -11 -13 -18 -13 -7 0 -15 6 -17 13 -3 7 4 12 17 12 13 0 20 -5 18 -12z
m-593 -18 c3 -5 -1 -10 -10 -10 -9 0 -13 5 -10 10 3 6 8 10 10 10 2 0 7 -4 10
-10z m933 -12 c-6 -18 -28 -21 -28 -4 0 9 7 16 16 16 9 0 14 -5 12 -12z m-218
-28 c0 -5 -7 -10 -15 -10 -8 0 -15 5 -15 10 0 6 7 10 15 10 8 0 15 -4 15 -10z
m146 -45 c-15 -14 -33 -25 -40 -25 -19 0 -28 -27 -11 -34 7 -2 19 4 27 15 14
22 48 17 48 -7 0 -7 7 -17 16 -22 8 -5 16 -16 18 -24 1 -9 8 -23 15 -32 16
-19 1 -22 -30 -5 -15 7 -24 7 -35 -1 -17 -15 -44 -6 -44 14 0 7 -9 16 -20 19
-11 3 -20 12 -20 21 0 18 -2 19 -24 10 -13 -5 -13 -8 -1 -20 7 -8 18 -14 24
-14 6 0 11 -8 11 -17 0 -10 3 -29 7 -43 5 -20 -4 -14 -44 29 -48 52 -58 81
-27 81 8 0 14 7 14 15 0 9 9 15 25 15 14 0 25 5 25 10 0 6 11 15 24 20 13 5
27 18 31 29 6 19 8 20 22 6 14 -14 12 -18 -11 -40z m104 19 c0 -17 -22 -14
-28 4 -2 7 3 12 12 12 9 0 16 -7 16 -16z m-36 -29 c4 -10 -1 -15 -14 -15 -11
0 -20 7 -20 15 0 8 6 15 14 15 8 0 16 -7 20 -15z m75 -4 c11 -7 9 -10 -8 -16
-25 -8 -36 -2 -26 14 8 13 15 14 34 2z m-929 -16 c0 -8 7 -15 15 -15 8 0 15
-4 15 -10 0 -5 -7 -10 -15 -10 -8 0 -15 -4 -15 -9 0 -16 -40 -23 -55 -11 -21
18 -18 40 5 40 11 0 20 7 20 15 0 8 7 15 15 15 8 0 15 -7 15 -15z m890 -32 c0
-10 -6 -13 -16 -9 -9 3 -18 6 -20 6 -2 0 -4 6 -4 14 0 9 7 12 20 9 11 -3 20
-12 20 -20z m73 -4 c-8 -8 -16 -8 -30 0 -16 9 -14 10 12 11 21 0 26 -3 18 -11z
m-808 -38 c10 -17 -12 -21 -25 -6 -10 12 -10 15 3 15 9 0 18 -4 22 -9z m763
-3 c-3 -7 -11 -13 -18 -13 -7 0 -15 6 -17 13 -3 7 4 12 17 12 13 0 20 -5 18
-12z m-1418 -44 c0 -14 -3 -14 -15 -4 -8 7 -15 14 -15 16 0 2 7 4 15 4 8 0 15
-7 15 -16z m1155 -4 c3 -5 -1 -10 -10 -10 -9 0 -13 5 -10 10 3 6 8 10 10 10 2
0 7 -4 10 -10z m-378 -6 c-3 -3 -12 -4 -19 -1 -8 3 -5 6 6 6 11 1 17 -2 13 -5z
m80 -10 c-3 -3 -12 -4 -19 -1 -8 3 -5 6 6 6 11 1 17 -2 13 -5z m83 2 c0 -3 -4
-8 -10 -11 -5 -3 -10 -1 -10 4 0 6 5 11 10 11 6 0 10 -2 10 -4z m154 -31 c-4
-8 -8 -15 -10 -15 -2 0 -4 7 -4 15 0 8 4 15 10 15 5 0 7 -7 4 -15z m-284 -5
c0 -5 -7 -10 -15 -10 -8 0 -15 5 -15 10 0 6 7 10 15 10 8 0 15 -4 15 -10z
m380 0 c0 -5 -4 -10 -10 -10 -5 0 -10 5 -10 10 0 6 5 10 10 10 6 0 10 -4 10
-10z m-470 -86 c0 -14 -3 -14 -15 -4 -8 7 -15 14 -15 16 0 2 7 4 15 4 8 0 15
-7 15 -16z m247 -20 c-3 -3 -12 -4 -19 -1 -8 3 -5 6 6 6 11 1 17 -2 13 -5z
m-847 -199 c14 -13 31 -31 38 -39 17 -22 16 -111 -3 -126 -8 -7 -15 -16 -15
-21 0 -5 -10 -19 -22 -31 -19 -19 -34 -23 -85 -23 -44 0 -67 5 -80 18 -11 9
-25 17 -31 17 -28 0 -4 71 38 110 7 7 29 42 37 60 12 27 54 60 76 60 12 0 33
-11 47 -25z"/>
<path d="M3810 2250 c0 -11 7 -20 15 -20 8 0 15 9 15 20 0 11 -7 20 -15 20 -8
0 -15 -9 -15 -20z"/>
<path d="M3970 4940 c0 -5 5 -10 10 -10 6 0 10 5 10 10 0 6 -4 10 -10 10 -5 0
-10 -4 -10 -10z"/>
<path d="M4088 4893 c7 -3 16 -2 19 1 4 3 -2 6 -13 5 -11 0 -14 -3 -6 -6z"/>
<path d="M4176 4891 c-4 -7 -5 -15 -2 -18 9 -9 19 4 14 18 -4 11 -6 11 -12 0z"/>
<path d="M2910 4844 c0 -8 5 -12 10 -9 6 4 8 11 5 16 -9 14 -15 11 -15 -7z"/>
<path d="M4130 4850 c0 -5 5 -10 10 -10 6 0 10 5 10 10 0 6 -4 10 -10 10 -5 0
-10 -4 -10 -10z"/>
<path d="M5233 4843 c-15 -5 -17 -33 -3 -33 6 0 10 -15 10 -32 0 -29 -9 -39
-64 -81 -53 -40 -63 -52 -58 -70 5 -18 7 -19 10 -4 4 20 52 24 52 5 1 -7 7 -2
14 12 9 17 30 30 61 39 45 13 47 13 74 -13 32 -31 39 -32 37 -8 0 9 5 16 12
15 33 -7 -1 63 -58 118 -30 29 -75 56 -87 52z m67 -63 c12 -7 12 -12 2 -22 -9
-9 -12 -9 -12 4 0 9 -6 19 -12 21 -7 3 -8 6 -3 6 6 0 17 -4 25 -9z m60 -80 c0
-5 -5 -10 -11 -10 -5 0 -7 5 -4 10 3 6 8 10 11 10 2 0 4 -4 4 -10z"/>
<path d="M4218 4833 c7 -3 16 -2 19 1 4 3 -2 6 -13 5 -11 0 -14 -3 -6 -6z"/>
<path d="M2860 4820 c0 -5 -6 -10 -12 -10 -7 0 -21 -12 -32 -26 -15 -22 -16
-28 -5 -35 10 -6 15 -3 17 10 2 11 14 22 28 25 23 6 36 46 14 46 -5 0 -10 -4
-10 -10z"/>
<path d="M2940 4795 c0 -8 2 -15 4 -15 2 0 6 7 10 15 3 8 1 15 -4 15 -6 0 -10
-7 -10 -15z"/>
<path d="M4256 4795 c4 -8 8 -15 10 -15 2 0 4 7 4 15 0 8 -4 15 -10 15 -5 0
-7 -7 -4 -15z"/>
<path d="M4168 4783 c7 -3 16 -2 19 1 4 3 -2 6 -13 5 -11 0 -14 -3 -6 -6z"/>
<path d="M2894 4769 c-3 -6 -1 -16 5 -22 8 -8 11 -5 11 11 0 24 -5 28 -16 11z"/>
<path d="M2844 4735 c-3 -8 -3 -19 0 -24 9 -13 36 -2 36 14 0 19 -30 27 -36
10z"/>
<path d="M2930 4720 c0 -5 5 -10 10 -10 6 0 10 5 10 10 0 6 -4 10 -10 10 -5 0
-10 -4 -10 -10z"/>
<path d="M4161 4714 c0 -11 3 -14 6 -6 3 7 2 16 -1 19 -3 4 -6 -2 -5 -13z"/>
<path d="M2803 4695 c-3 -9 -3 -18 0 -21 9 -9 27 6 27 22 0 19 -19 18 -27 -1z"/>
<path d="M2892 4685 c-11 -12 -10 -15 3 -15 8 0 15 7 15 15 0 18 -2 18 -18 0z"/>
<path d="M4116 4691 c-4 -7 -5 -15 -2 -18 9 -9 19 4 14 18 -4 11 -6 11 -12 0z"/>
<path d="M4193 4685 c-3 -9 -3 -18 0 -21 9 -9 27 6 27 22 0 19 -19 18 -27 -1z"/>
<path d="M2830 4655 c0 -8 -8 -15 -19 -15 -16 0 -30 -24 -31 -52 0 -15 20 -8
37 12 10 11 23 20 30 20 7 0 13 11 13 25 0 16 -6 25 -15 25 -8 0 -15 -7 -15
-15z"/>
<path d="M4150 4635 c0 -8 5 -15 10 -15 6 0 10 7 10 15 0 8 -4 15 -10 15 -5 0
-10 -7 -10 -15z"/>
<path d="M4220 4639 c0 -6 6 -17 14 -25 17 -16 31 -2 22 21 -6 17 -36 20 -36
4z"/>
<path d="M2920 4630 c0 -5 5 -10 10 -10 6 0 10 5 10 10 0 6 -4 10 -10 10 -5 0
-10 -4 -10 -10z"/>
<path d="M4020 4604 c0 -8 5 -12 10 -9 6 3 10 10 10 16 0 5 -4 9 -10 9 -5 0
-10 -7 -10 -16z"/>
<path d="M4110 4605 c-10 -12 -10 -15 4 -15 9 0 16 7 16 15 0 8 -2 15 -4 15
-2 0 -9 -7 -16 -15z"/>
<path d="M2880 4600 c0 -5 5 -10 11 -10 5 0 7 5 4 10 -3 6 -8 10 -11 10 -2 0
-4 -4 -4 -10z"/>
<path d="M3970 4575 c0 -8 5 -15 10 -15 6 0 10 7 10 15 0 8 -4 15 -10 15 -5 0
-10 -7 -10 -15z"/>
<path d="M2830 4566 c0 -9 5 -16 10 -16 6 0 10 4 10 9 0 6 -4 13 -10 16 -5 3
-10 -1 -10 -9z"/>
<path d="M4141 4561 c-10 -6 -10 -10 -1 -16 13 -8 24 -1 19 14 -3 6 -10 7 -18
2z"/>
<path d="M2787 4539 c-17 -10 -24 -39 -9 -39 14 0 44 38 35 43 -5 3 -16 1 -26
-4z"/>
<path d="M4015 4530 c-3 -5 -1 -10 4 -10 6 0 11 5 11 10 0 6 -2 10 -4 10 -3 0
-8 -4 -11 -10z"/>
<path d="M4094 4526 c-8 -22 3 -33 18 -18 9 9 9 15 0 24 -9 9 -13 7 -18 -6z"/>
<path d="M2870 4520 c-8 -5 -11 -12 -7 -16 4 -4 13 -2 19 4 15 15 7 24 -12 12z"/>
<path d="M4170 4509 c0 -12 8 -23 19 -26 13 -3 17 -11 13 -26 -4 -16 -2 -19
12 -14 10 4 20 7 22 7 14 0 0 30 -16 35 -11 3 -20 15 -20 26 0 10 -7 19 -15
19 -9 0 -15 -9 -15 -21z"/>
<path d="M3880 4494 c0 -14 3 -14 15 -4 8 7 15 14 15 16 0 2 -7 4 -15 4 -8 0
-15 -7 -15 -16z"/>
<path d="M3966 4495 c-3 -9 0 -15 9 -15 8 0 15 7 15 15 0 8 -4 15 -9 15 -5 0
-11 -7 -15 -15z"/>
<path d="M2826 4493 c-9 -9 -7 -33 3 -33 12 0 22 28 12 34 -5 3 -11 3 -15 -1z"/>
<path d="M4050 4484 c0 -8 5 -12 10 -9 6 4 8 11 5 16 -9 14 -15 11 -15 -7z"/>
<path d="M3830 4460 c0 -5 5 -10 11 -10 5 0 7 5 4 10 -3 6 -8 10 -11 10 -2 0
-4 -4 -4 -10z"/>
<path d="M2770 4440 c0 -11 7 -20 15 -20 8 0 15 9 15 20 0 11 -7 20 -15 20 -8
0 -15 -9 -15 -20z"/>
<path d="M2860 4435 c0 -8 5 -15 10 -15 6 0 10 7 10 15 0 8 -4 15 -10 15 -5 0
-10 -7 -10 -15z"/>
<path d="M4080 4435 c0 -9 6 -12 15 -9 8 4 15 10 15 15 0 5 -7 9 -15 9 -8 0
-15 -7 -15 -15z"/>
<path d="M3961 4404 c0 -11 3 -14 6 -6 3 7 2 16 -1 19 -3 4 -6 -2 -5 -13z"/>
<path d="M4040 4405 c0 -8 5 -15 10 -15 6 0 10 7 10 15 0 8 -4 15 -10 15 -5 0
-10 -7 -10 -15z"/>
<path d="M2799 4397 c-9 -7 -21 -22 -28 -34 -10 -20 -9 -23 9 -23 23 0 27 -25
6 -37 -8 -4 -15 -17 -17 -27 -3 -12 -16 -23 -36 -28 -42 -11 -52 -28 -16 -28
29 0 64 29 76 64 6 15 10 16 22 6 13 -10 15 -8 15 13 0 14 -7 27 -15 31 -8 3
-15 12 -15 20 0 8 7 21 15 30 26 26 14 36 -16 13z"/>
<path d="M4123 4395 c-8 -22 6 -33 17 -15 13 20 12 30 0 30 -6 0 -13 -7 -17
-15z"/>
<path d="M4080 4355 c0 -8 2 -15 4 -15 2 0 6 7 10 15 3 8 1 15 -4 15 -6 0 -10
-7 -10 -15z"/>
<path d="M4035 4320 c-3 -5 -1 -10 4 -10 6 0 11 5 11 10 0 6 -2 10 -4 10 -3 0
-8 -4 -11 -10z"/>
<path d="M4116 4322 c-2 -4 -1 -14 3 -21 6 -10 10 -9 14 3 6 16 -8 32 -17 18z"/>
<path d="M3821 4294 c0 -11 3 -14 6 -6 3 7 2 16 -1 19 -3 4 -6 -2 -5 -13z"/>
<path d="M3990 4280 c0 -19 3 -21 12 -12 9 9 9 15 0 24 -9 9 -12 7 -12 -12z"/>
<path d="M3691 4264 c0 -11 3 -14 6 -6 3 7 2 16 -1 19 -3 4 -6 -2 -5 -13z"/>
<path d="M3770 4255 c0 -9 6 -12 15 -9 8 4 12 10 9 15 -8 14 -24 10 -24 -6z"/>
<path d="M2616 4253 c5 -5 11 -12 15 -16 3 -4 12 -1 19 8 11 13 9 15 -15 15
-16 0 -24 -3 -19 -7z"/>
<path d="M3862 4245 c-11 -12 -10 -15 3 -15 8 0 15 7 15 15 0 18 -2 18 -18 0z"/>
<path d="M2797 4236 c-3 -8 -2 -18 3 -21 13 -8 24 15 12 27 -6 6 -11 4 -15 -6z"/>
<path d="M3940 4240 c0 -5 5 -10 11 -10 5 0 7 5 4 10 -3 6 -8 10 -11 10 -2 0
-4 -4 -4 -10z"/>
<path d="M4020 4235 c0 -8 7 -15 15 -15 8 0 15 7 15 15 0 8 -7 15 -15 15 -8 0
-15 -7 -15 -15z"/>
<path d="M2577 4219 c3 -10 9 -16 14 -13 13 8 11 21 -5 27 -10 4 -12 0 -9 -14z"/>
<path d="M3351 4214 c0 -11 3 -14 6 -6 3 7 2 16 -1 19 -3 4 -6 -2 -5 -13z"/>
<path d="M3720 4220 c0 -5 4 -10 9 -10 6 0 13 5 16 10 3 6 -1 10 -9 10 -9 0
-16 -4 -16 -10z"/>
<path d="M3810 4215 c-10 -12 -10 -15 4 -15 9 0 16 7 16 15 0 8 -2 15 -4 15
-2 0 -9 -7 -16 -15z"/>
<path d="M3430 4210 c0 -5 5 -10 11 -10 5 0 7 5 4 10 -3 6 -8 10 -11 10 -2 0
-4 -4 -4 -10z"/>
<path d="M3896 4211 c-4 -7 -5 -15 -2 -18 9 -9 19 4 14 18 -4 11 -6 11 -12 0z"/>
<path d="M2752 4199 c2 -6 8 -10 13 -10 5 0 11 4 13 10 2 6 -4 11 -13 11 -9 0
-15 -5 -13 -11z"/>
<path d="M3516 4201 c-3 -5 1 -14 9 -21 12 -10 13 -16 4 -26 -17 -21 -39 -17
-39 6 0 23 -25 27 -34 5 -3 -8 -14 -15 -25 -15 -11 0 -25 -8 -30 -17 -7 -11
-14 -14 -18 -8 -5 6 -16 16 -26 24 -15 12 -20 11 -37 -9 l-20 -23 -19 24 c-19
23 -20 23 -27 5 -5 -12 -3 -21 4 -24 17 -5 15 -32 -3 -32 -8 0 -15 7 -15 15 0
17 -25 20 -35 5 -3 -6 1 -17 9 -26 9 -8 16 -20 16 -25 0 -15 37 -10 44 6 9 25
43 18 50 -10 7 -26 36 -25 36 1 0 16 26 19 35 4 3 -5 -3 -15 -15 -22 -20 -13
-28 -48 -12 -48 5 0 17 9 27 20 10 11 24 20 32 20 7 0 13 7 13 15 0 22 37 18
43 -5 3 -11 12 -20 21 -20 9 0 16 -8 16 -19 0 -30 27 -33 49 -6 10 14 22 25
25 25 6 0 30 19 72 57 25 23 32 43 14 43 -5 0 -12 11 -16 25 -7 27 -34 35 -34
10 0 -8 -4 -15 -10 -15 -5 0 -10 -4 -10 -10 0 -5 11 -10 25 -10 16 0 25 -6 25
-15 0 -9 -9 -15 -25 -15 -16 0 -25 -6 -25 -15 0 -8 -7 -15 -15 -15 -8 0 -15 7
-15 15 0 8 7 15 15 15 8 0 15 6 15 14 0 8 -7 21 -15 30 -21 21 -19 29 13 48
22 14 23 18 8 18 -10 0 -24 -7 -30 -16 -10 -14 -15 -13 -38 6 -15 11 -29 16
-32 11z m-49 -83 c-3 -8 -6 -5 -6 6 -1 11 2 17 5 13 3 -3 4 -12 1 -19z m94
-21 c-15 -15 -24 -2 -16 24 7 20 8 21 17 5 7 -12 7 -21 -1 -29z m-206 4 c7
-12 -12 -24 -25 -16 -11 7 -4 25 10 25 5 0 11 -4 15 -9z m165 -26 c0 -9 -6
-12 -15 -9 -8 4 -15 10 -15 15 0 5 7 9 15 9 8 0 15 -7 15 -15z m44 -34 c3 -5
-1 -12 -10 -15 -20 -8 -29 -1 -19 13 8 13 22 14 29 2z"/>
<path d="M3970 4195 c0 -9 5 -15 11 -13 6 2 11 8 11 13 0 5 -5 11 -11 13 -6 2
-11 -4 -11 -13z"/>
<path d="M2534 4190 c-13 -21 -34 -62 -34 -66 0 -2 5 -4 10 -4 6 0 10 5 10 12
0 6 7 19 16 29 9 10 14 24 12 30 -3 10 -7 9 -14 -1z"/>
<path d="M3680 4185 c0 -8 5 -15 10 -15 6 0 10 7 10 15 0 8 -4 15 -10 15 -5 0
-10 -7 -10 -15z"/>
<path d="M3767 4186 c-3 -8 -2 -18 3 -21 13 -8 20 9 11 24 -6 10 -10 9 -14 -3z"/>
<path d="M3300 4175 c0 -9 6 -12 15 -9 8 4 12 10 9 15 -8 14 -24 10 -24 -6z"/>
<path d="M3383 4175 c-3 -9 -3 -18 0 -21 9 -9 27 6 27 22 0 19 -19 18 -27 -1z"/>
<path d="M3710 4161 c0 -18 12 -41 21 -41 15 0 10 37 -6 44 -8 3 -15 1 -15 -3z"/>
<path d="M2567 4126 c-6 -16 2 -28 14 -20 12 7 11 34 0 34 -5 0 -11 -6 -14
-14z"/>
<path d="M2662 4120 c0 -14 2 -19 5 -12 2 6 2 18 0 25 -3 6 -5 1 -5 -13z"/>
<path d="M3800 4124 c0 -8 5 -12 10 -9 6 3 10 10 10 16 0 5 -4 9 -10 9 -5 0
-10 -7 -10 -16z"/>
<path d="M2535 4100 c-3 -5 -19 -10 -34 -10 -27 0 -40 -18 -41 -52 0 -19 38
-6 50 17 7 14 19 25 27 25 7 0 13 7 13 15 0 17 -6 19 -15 5z"/>
<path d="M2691 4074 c0 -11 3 -14 6 -6 3 7 2 16 -1 19 -3 4 -6 -2 -5 -13z"/>
<path d="M2571 4044 c0 -11 3 -14 6 -6 3 7 2 16 -1 19 -3 4 -6 -2 -5 -13z"/>
<path d="M3190 4026 c0 -2 7 -6 15 -10 8 -3 15 -1 15 4 0 6 -7 10 -15 10 -8 0
-15 -2 -15 -4z"/>
<path d="M3660 4020 c0 -5 7 -7 15 -4 8 4 15 8 15 10 0 2 -7 4 -15 4 -8 0 -15
-4 -15 -10z"/>
<path d="M3455 4011 c-3 -5 -1 -12 5 -16 5 -3 10 1 10 9 0 18 -6 21 -15 7z"/>
<path d="M3610 3990 c0 -19 11 -26 23 -14 8 8 -3 34 -14 34 -5 0 -9 -9 -9 -20z"/>
<path d="M2470 3975 c0 -16 6 -25 15 -25 8 0 15 4 15 9 0 5 3 16 6 25 4 12 0
16 -15 16 -16 0 -21 -6 -21 -25z"/>
<path d="M2690 3979 c0 -5 5 -9 10 -9 16 0 11 -20 -6 -27 -10 -4 -22 1 -29 11
-11 14 -13 15 -19 1 -3 -9 0 -15 9 -15 23 0 18 -41 -5 -47 -23 -6 -27 -33 -5
-33 8 0 15 7 15 15 0 9 9 15 25 15 15 0 25 6 25 15 0 8 9 19 20 25 28 15 25
26 -10 44 -16 8 -30 10 -30 5z"/>
<path d="M3411 3964 c0 -11 3 -14 6 -6 3 7 2 16 -1 19 -3 4 -6 -2 -5 -13z"/>
<path d="M3485 3960 c-8 -13 9 -20 24 -11 10 6 9 10 -3 14 -8 3 -18 2 -21 -3z"/>
<path d="M2504 3935 c-4 -8 -14 -15 -24 -15 -16 0 -30 -18 -30 -41 0 -5 9 -9
20 -9 11 0 20 -7 20 -15 0 -8 -4 -15 -10 -15 -5 0 -10 -7 -10 -15 0 -27 39
-16 55 15 15 28 14 30 -4 30 -26 0 -33 24 -10 38 20 13 26 42 9 42 -6 0 -13
-7 -16 -15z"/>
<path d="M3520 3910 c0 -5 7 -7 15 -4 8 4 15 8 15 10 0 2 -7 4 -15 4 -8 0 -15
-4 -15 -10z"/>
<path d="M3491 3874 c0 -11 3 -14 6 -6 3 7 2 16 -1 19 -3 4 -6 -2 -5 -13z"/>
<path d="M2888 3843 c7 -3 16 -2 19 1 4 3 -2 6 -13 5 -11 0 -14 -3 -6 -6z"/>
<path d="M2662 3828 c6 -18 28 -21 28 -4 0 9 -7 16 -16 16 -9 0 -14 -5 -12
-12z"/>
<path d="M2531 3796 c-16 -19 -11 -29 8 -17 7 5 12 14 9 21 -3 9 -8 7 -17 -4z"/>
<path d="M3771 3794 c0 -11 3 -14 6 -6 3 7 2 16 -1 19 -3 4 -6 -2 -5 -13z"/>
<path d="M2881 3764 c0 -11 3 -14 6 -6 3 7 2 16 -1 19 -3 4 -6 -2 -5 -13z"/>
<path d="M3800 3756 c0 -2 7 -9 15 -16 12 -10 15 -10 15 4 0 9 -7 16 -15 16
-8 0 -15 -2 -15 -4z"/>
<path d="M3630 3685 c0 -8 7 -15 15 -15 8 0 15 7 15 15 0 8 -7 15 -15 15 -8 0
-15 -7 -15 -15z"/>
<path d="M2651 3584 c0 -11 3 -14 6 -6 3 7 2 16 -1 19 -3 4 -6 -2 -5 -13z"/>
<path d="M3790 3585 c0 -9 5 -15 11 -13 6 2 11 8 11 13 0 5 -5 11 -11 13 -6 2
-11 -4 -11 -13z"/>
<path d="M3742 3548 c6 -18 28 -21 28 -4 0 9 -7 16 -16 16 -9 0 -14 -5 -12
-12z"/>
<path d="M3440 3534 c0 -9 5 -14 12 -12 18 6 21 28 4 28 -9 0 -16 -7 -16 -16z"/>
<path d="M3535 3530 c-3 -5 -1 -10 4 -10 6 0 11 5 11 10 0 6 -2 10 -4 10 -3 0
-8 -4 -11 -10z"/>
<path d="M3616 3532 c-27 -6 -57 -44 -45 -56 6 -6 13 -6 21 2 18 18 42 14 56
-9 13 -21 13 -21 42 8 16 15 30 34 30 41 0 17 -25 15 -40 -3 -11 -13 -14 -12
-29 4 -9 10 -24 16 -35 13z"/>
<path d="M3406 3513 c-9 -9 -7 -33 3 -33 12 0 22 28 12 34 -5 3 -11 3 -15 -1z"/>
<path d="M2720 3495 c0 -8 4 -15 10 -15 5 0 7 7 4 15 -4 8 -8 15 -10 15 -2 0
-4 -7 -4 -15z"/>
<path d="M3345 3460 c-4 -6 3 -10 14 -10 25 0 27 6 6 13 -8 4 -17 2 -20 -3z"/>
<path d="M2760 3450 c0 -5 5 -10 11 -10 5 0 7 5 4 10 -3 6 -8 10 -11 10 -2 0
-4 -4 -4 -10z"/>
<path d="M3520 3439 c0 -5 5 -7 10 -4 6 3 10 8 10 11 0 2 -4 4 -10 4 -5 0 -10
-5 -10 -11z"/>
<path d="M3610 3435 c0 -8 5 -15 10 -15 6 0 10 7 10 15 0 8 -4 15 -10 15 -5 0
-10 -7 -10 -15z"/>
<path d="M3307 3434 c-8 -8 1 -24 14 -24 5 0 9 7 9 15 0 15 -12 20 -23 9z"/>
<path d="M3395 3420 c-3 -5 -1 -10 4 -10 6 0 11 5 11 10 0 6 -2 10 -4 10 -3 0
-8 -4 -11 -10z"/>
<path d="M3101 3404 c0 -11 3 -14 6 -6 3 7 2 16 -1 19 -3 4 -6 -2 -5 -13z"/>
<path d="M2802 3390 c0 -14 2 -19 5 -12 2 6 2 18 0 25 -3 6 -5 1 -5 -13z"/>
<path d="M3560 3400 c-13 -8 -12 -10 3 -10 9 0 17 5 17 10 0 12 -1 12 -20 0z"/>
<path d="M3645 3397 c-4 -10 -5 -21 -1 -24 10 -10 18 4 13 24 -4 17 -4 17 -12
0z"/>
<path d="M3340 3380 c0 -5 5 -10 10 -10 6 0 10 5 10 10 0 6 -4 10 -10 10 -5 0
-10 -4 -10 -10z"/>
<path d="M3131 3354 c0 -11 3 -14 6 -6 3 7 2 16 -1 19 -3 4 -6 -2 -5 -13z"/>
<path d="M3521 3354 c0 -11 3 -14 6 -6 3 7 2 16 -1 19 -3 4 -6 -2 -5 -13z"/>
<path d="M3466 3325 c-3 -8 -1 -15 4 -15 6 0 10 7 10 15 0 8 -2 15 -4 15 -2 0
-6 -7 -10 -15z"/>
<path d="M3550 3314 c0 -8 5 -12 10 -9 6 4 8 11 5 16 -9 14 -15 11 -15 -7z"/>
<path d="M2868 3303 c7 -3 16 -2 19 1 4 3 -2 6 -13 5 -11 0 -14 -3 -6 -6z"/>
<path d="M3255 3300 c4 -6 11 -8 16 -5 14 9 11 15 -7 15 -8 0 -12 -5 -9 -10z"/>
<path d="M3330 3295 c0 -8 7 -15 16 -15 10 0 14 -7 12 -22 -4 -31 -26 -34 -40
-4 -8 18 -14 23 -19 14 -4 -6 -3 -20 2 -29 14 -27 11 -39 -11 -39 -11 0 -20 7
-20 15 0 8 -7 15 -15 15 -8 0 -15 -7 -15 -15 0 -8 7 -15 15 -15 8 0 15 -9 15
-20 0 -11 5 -20 10 -20 6 0 19 9 30 20 11 11 27 20 35 20 8 0 15 7 15 15 0 8
9 15 19 15 29 0 34 28 8 41 -12 7 -26 18 -30 25 -11 19 -27 18 -27 -1z"/>
<path d="M3422 3298 c-16 -16 -15 -28 3 -28 8 0 15 9 15 20 0 23 -2 24 -18 8z"/>
<path d="M3506 3293 c-12 -12 -6 -33 9 -33 8 0 15 6 15 14 0 17 -14 28 -24 19z"/>
<path d="M2831 3264 c0 -11 3 -14 6 -6 3 7 2 16 -1 19 -3 4 -6 -2 -5 -13z"/>
<path d="M3205 3270 c3 -5 8 -10 11 -10 2 0 4 5 4 10 0 6 -5 10 -11 10 -5 0
-7 -4 -4 -10z"/>
<path d="M2910 3254 c0 -8 5 -12 10 -9 6 4 8 11 5 16 -9 14 -15 11 -15 -7z"/>
<path d="M3447 3254 c-13 -13 -7 -24 14 -24 11 0 19 5 17 12 -5 14 -22 21 -31
12z"/>
<path d="M2990 3240 c0 -5 5 -10 11 -10 5 0 7 5 4 10 -3 6 -8 10 -11 10 -2 0
-4 -4 -4 -10z"/>
<path d="M3526 3241 c-3 -5 0 -13 7 -19 15 -13 42 1 33 17 -9 13 -33 15 -40 2z"/>
<path d="M2860 3220 c0 -5 5 -10 10 -10 6 0 10 5 10 10 0 6 -4 10 -10 10 -5 0
-10 -4 -10 -10z"/>
<path d="M3410 3199 c0 -5 5 -7 10 -4 6 3 10 8 10 11 0 2 -4 4 -10 4 -5 0 -10
-5 -10 -11z"/>
<path d="M3110 3190 c0 -5 5 -10 10 -10 6 0 10 5 10 10 0 6 -4 10 -10 10 -5 0
-10 -4 -10 -10z"/>
<path d="M2815 3180 c-3 -5 -1 -10 4 -10 6 0 11 5 11 10 0 6 -2 10 -4 10 -3 0
-8 -4 -11 -10z"/>
<path d="M3198 3173 c7 -3 16 -2 19 1 4 3 -2 6 -13 5 -11 0 -14 -3 -6 -6z"/>
<path d="M3360 3170 c0 -5 5 -10 10 -10 6 0 10 5 10 10 0 6 -4 10 -10 10 -5 0
-10 -4 -10 -10z"/>
<path d="M2985 3160 c3 -5 8 -10 11 -10 2 0 4 5 4 10 0 6 -5 10 -11 10 -5 0
-7 -4 -4 -10z"/>
<path d="M3155 3150 c-3 -5 1 -10 10 -10 9 0 13 5 10 10 -3 6 -8 10 -10 10 -2
0 -7 -4 -10 -10z"/>
<path d="M3236 3153 c-11 -12 -6 -33 8 -33 19 0 28 27 11 33 -7 3 -16 3 -19 0z"/>
<path d="M3535 3150 c-3 -5 -1 -10 4 -10 6 0 11 5 11 10 0 6 -2 10 -4 10 -3 0
-8 -4 -11 -10z"/>
<path d="M3610 3135 c0 -8 7 -15 15 -15 8 0 15 7 15 15 0 8 -7 15 -15 15 -8 0
-15 -7 -15 -15z"/>
<path d="M3690 3135 c0 -8 -9 -15 -20 -15 -13 0 -20 -7 -20 -19 0 -29 17 -35
32 -11 7 11 23 20 35 20 26 0 31 25 7 34 -25 10 -34 7 -34 -9z"/>
<path d="M2941 3124 c0 -11 3 -14 6 -6 3 7 2 16 -1 19 -3 4 -6 -2 -5 -13z"/>
<path d="M2796 3105 c-3 -9 0 -15 9 -15 8 0 15 7 15 15 0 8 -4 15 -9 15 -5 0
-11 -7 -15 -15z"/>
<path d="M3020 3109 c0 -5 5 -7 10 -4 6 3 10 8 10 11 0 2 -4 4 -10 4 -5 0 -10
-5 -10 -11z"/>
<path d="M3110 3100 c0 -5 5 -10 10 -10 6 0 10 5 10 10 0 6 -4 10 -10 10 -5 0
-10 -4 -10 -10z"/>
<path d="M3190 3100 c0 -5 5 -10 11 -10 5 0 7 5 4 10 -3 6 -8 10 -11 10 -2 0
-4 -4 -4 -10z"/>
<path d="M3570 3100 c0 -5 5 -10 11 -10 5 0 7 5 4 10 -3 6 -8 10 -11 10 -2 0
-4 -4 -4 -10z"/>
<path d="M3270 3090 c0 -5 4 -10 9 -10 6 0 13 5 16 10 3 6 -1 10 -9 10 -9 0
-16 -4 -16 -10z"/>
<path d="M3360 3080 c0 -5 5 -10 10 -10 6 0 10 5 10 10 0 6 -4 10 -10 10 -5 0
-10 -4 -10 -10z"/>
<path d="M3441 3074 c0 -11 3 -14 6 -6 3 7 2 16 -1 19 -3 4 -6 -2 -5 -13z"/>
<path d="M3065 3070 c-3 -5 -1 -10 4 -10 6 0 11 5 11 10 0 6 -2 10 -4 10 -3 0
-8 -4 -11 -10z"/>
<path d="M2766 3061 c-4 -7 -5 -15 -2 -18 9 -9 19 4 14 18 -4 11 -6 11 -12 0z"/>
<path d="M3610 3060 c0 -5 5 -10 10 -10 6 0 10 5 10 10 0 6 -4 10 -10 10 -5 0
-10 -4 -10 -10z"/>
<path d="M3220 3049 c0 -5 5 -7 10 -4 6 3 10 8 10 11 0 2 -4 4 -10 4 -5 0 -10
-5 -10 -11z"/>
<path d="M3321 3044 c0 -11 3 -14 6 -6 3 7 2 16 -1 19 -3 4 -6 -2 -5 -13z"/>
<path d="M3690 3045 c0 -8 4 -15 9 -15 5 0 11 7 15 15 3 9 0 15 -9 15 -8 0
-15 -7 -15 -15z"/>
<path d="M3651 3014 c0 -11 3 -14 6 -6 3 7 2 16 -1 19 -3 4 -6 -2 -5 -13z"/>
<path d="M3733 3023 c-18 -7 -16 -43 2 -43 9 0 15 9 15 25 0 14 -1 25 -2 24
-2 0 -9 -3 -15 -6z"/>
<path d="M3351 2994 c0 -11 3 -14 6 -6 3 7 2 16 -1 19 -3 4 -6 -2 -5 -13z"/>
<path d="M3050 2980 c0 -5 5 -10 10 -10 6 0 10 5 10 10 0 6 -4 10 -10 10 -5 0
-10 -4 -10 -10z"/>
<path d="M3140 2980 c-8 -5 -12 -11 -9 -14 2 -3 11 -1 19 4 8 5 12 11 9 14 -2
3 -11 1 -19 -4z"/>
<path d="M3221 2964 c0 -11 3 -14 6 -6 3 7 2 16 -1 19 -3 4 -6 -2 -5 -13z"/>
<path d="M3301 2964 c0 -11 3 -14 6 -6 3 7 2 16 -1 19 -3 4 -6 -2 -5 -13z"/>
<path d="M3691 2964 c0 -11 3 -14 6 -6 3 7 2 16 -1 19 -3 4 -6 -2 -5 -13z"/>
<path d="M3380 2956 c0 -2 7 -6 15 -10 8 -3 15 -1 15 4 0 6 -7 10 -15 10 -8 0
-15 -2 -15 -4z"/>
<path d="M3080 2940 c0 -5 7 -10 15 -10 8 0 15 5 15 10 0 6 -7 10 -15 10 -8 0
-15 -4 -15 -10z"/>
<path d="M3170 2935 c0 -8 5 -15 10 -15 6 0 10 7 10 15 0 8 -4 15 -10 15 -5 0
-10 -7 -10 -15z"/>
<path d="M3256 2935 c-3 -9 0 -15 9 -15 9 0 12 6 9 15 -4 8 -7 15 -9 15 -2 0
-5 -7 -9 -15z"/>
<path d="M3720 2920 c0 -5 7 -10 15 -10 8 0 15 5 15 10 0 6 -7 10 -15 10 -8 0
-15 -4 -15 -10z"/>
<path d="M3330 2916 c0 -2 7 -6 15 -10 8 -3 15 -1 15 4 0 6 -7 10 -15 10 -8 0
-15 -2 -15 -4z"/>
<path d="M3130 2900 c0 -5 5 -10 11 -10 5 0 7 5 4 10 -3 6 -8 10 -11 10 -2 0
-4 -4 -4 -10z"/>
<path d="M3206 2885 c4 -8 10 -15 15 -15 5 0 9 7 9 15 0 8 -7 15 -15 15 -9 0
-12 -6 -9 -15z"/>
<path d="M3676 2891 c-4 -7 -5 -15 -2 -18 9 -9 19 4 14 18 -4 11 -6 11 -12 0z"/>
<path d="M2110 2880 c0 -5 5 -10 10 -10 6 0 10 5 10 10 0 6 -4 10 -10 10 -5 0
-10 -4 -10 -10z"/>
<path d="M3290 2880 c0 -5 5 -10 10 -10 6 0 10 5 10 10 0 6 -4 10 -10 10 -5 0
-10 -4 -10 -10z"/>
<path d="M3380 2875 c0 -8 7 -15 15 -15 9 0 12 6 9 15 -4 8 -10 15 -15 15 -5
0 -9 -7 -9 -15z"/>
<path d="M2990 2866 c0 -2 7 -6 15 -10 8 -3 15 -1 15 4 0 6 -7 10 -15 10 -8 0
-15 -2 -15 -4z"/>
<path d="M3081 2854 c0 -11 3 -14 6 -6 3 7 2 16 -1 19 -3 4 -6 -2 -5 -13z"/>
<path d="M3167 2863 c-12 -11 -8 -23 8 -23 8 0 15 7 15 15 0 16 -12 20 -23 8z"/>
<path d="M3250 2850 c-13 -9 -13 -11 0 -20 10 -6 16 -6 18 0 7 20 -3 30 -18
20z"/>
<path d="M3630 2850 c0 -5 5 -10 11 -10 5 0 7 5 4 10 -3 6 -8 10 -11 10 -2 0
-4 -4 -4 -10z"/>
<path d="M3707 2844 c-3 -3 -3 -12 0 -20 4 -11 7 -11 19 1 8 7 14 16 14 19 0
8 -25 8 -33 0z"/>
<path d="M3330 2829 c0 -5 5 -7 10 -4 6 3 10 8 10 11 0 2 -4 4 -10 4 -5 0 -10
-5 -10 -11z"/>
<path d="M3410 2825 c0 -8 7 -15 15 -15 9 0 12 6 9 15 -4 8 -10 15 -15 15 -5
0 -9 -7 -9 -15z"/>
<path d="M3580 2810 c0 -19 3 -21 12 -12 9 9 9 15 0 24 -9 9 -12 7 -12 -12z"/>
<path d="M3110 2810 c0 -5 4 -10 9 -10 6 0 13 5 16 10 3 6 -1 10 -9 10 -9 0
-16 -4 -16 -10z"/>
<path d="M3660 2795 c0 -8 7 -15 15 -15 8 0 15 7 15 15 0 8 -7 15 -15 15 -8 0
-15 -7 -15 -15z"/>
<path d="M3360 2790 c0 -5 7 -10 15 -10 8 0 15 5 15 10 0 6 -7 10 -15 10 -8 0
-15 -4 -15 -10z"/>
<path d="M3456 2791 c-4 -7 -5 -15 -2 -18 9 -9 19 4 14 18 -4 11 -6 11 -12 0z"/>
<path d="M3535 2780 c-4 -6 -3 -16 3 -22 6 -6 12 -6 17 2 4 6 3 16 -3 22 -6 6
-12 6 -17 -2z"/>
<path d="M3160 2764 c0 -8 5 -12 10 -9 6 3 10 10 10 16 0 5 -4 9 -10 9 -5 0
-10 -7 -10 -16z"/>
<path d="M3489 2740 l-24 -19 28 -1 c20 0 27 5 27 20 0 25 -2 25 -31 0z"/>
<path d="M3110 2730 c0 -5 5 -10 10 -10 6 0 10 5 10 10 0 6 -4 10 -10 10 -5 0
-10 -4 -10 -10z"/>
<path d="M3190 2725 c0 -16 16 -20 24 -6 3 5 -1 11 -9 15 -9 3 -15 0 -15 -9z"/>
<path d="M3151 2684 c0 -11 3 -14 6 -6 3 7 2 16 -1 19 -3 4 -6 -2 -5 -13z"/>
<path d="M3230 2685 c-10 -12 -10 -15 4 -15 9 0 16 7 16 15 0 8 -2 15 -4 15
-2 0 -9 -7 -16 -15z"/>
<path d="M3266 2643 c-12 -12 -5 -23 14 -23 11 0 20 4 20 9 0 11 -26 22 -34
14z"/>
<path d="M3340 2627 c0 -19 10 -27 26 -20 21 8 17 33 -6 33 -11 0 -20 -6 -20
-13z"/>
<path d="M3430 2615 c-7 -14 -22 -25 -32 -25 -10 0 -18 -7 -18 -15 0 -8 7 -15
15 -15 9 0 18 7 21 15 4 8 14 15 24 15 16 0 30 18 30 41 0 19 -27 8 -40 -16z"/>
<path d="M3300 2591 c0 -12 6 -21 16 -21 9 0 14 7 12 17 -5 25 -28 28 -28 4z"/>
<path d="M3330 2546 c0 -8 11 -17 25 -20 16 -4 25 -13 25 -26 0 -11 7 -20 15
-20 24 0 18 20 -15 51 -33 32 -50 37 -50 15z"/>
<path d="M3416 2544 c-9 -23 -8 -24 13 -24 16 0 31 18 31 36 0 12 -39 2 -44
-12z"/>
<path d="M3110 2446 c0 -2 7 -6 15 -10 8 -3 15 -1 15 4 0 6 -7 10 -15 10 -8 0
-15 -2 -15 -4z"/>
<path d="M3206 2435 c-3 -8 -1 -15 4 -15 6 0 10 7 10 15 0 8 -2 15 -4 15 -2 0
-6 -7 -10 -15z"/>
<path d="M3290 2419 c0 -5 5 -7 10 -4 6 3 10 8 10 11 0 2 -4 4 -10 4 -5 0 -10
-5 -10 -11z"/>
<path d="M3160 2391 c0 -25 6 -27 13 -6 4 8 2 17 -3 20 -6 4 -10 -3 -10 -14z"/>
<path d="M3236 2393 c-11 -11 -6 -23 9 -23 8 0 15 4 15 9 0 13 -16 22 -24 14z"/>
<path d="M3106 2355 c-3 -9 0 -15 9 -15 8 0 15 7 15 15 0 8 -4 15 -9 15 -5 0
-11 -7 -15 -15z"/>
<path d="M3190 2340 c0 -5 5 -10 11 -10 5 0 7 5 4 10 -3 6 -8 10 -11 10 -2 0
-4 -4 -4 -10z"/>
<path d="M3360 2330 c0 -5 5 -10 10 -10 6 0 10 5 10 10 0 6 -4 10 -10 10 -5 0
-10 -4 -10 -10z"/>
<path d="M3450 2320 c-13 -8 -12 -10 3 -10 9 0 17 5 17 10 0 12 -1 12 -20 0z"/>
<path d="M3145 2310 c-3 -5 1 -10 9 -10 9 0 16 5 16 10 0 6 -4 10 -9 10 -6 0
-13 -4 -16 -10z"/>
<path d="M3220 2300 c0 -5 6 -10 14 -10 8 0 18 5 21 10 3 6 -3 10 -14 10 -12
0 -21 -4 -21 -10z"/>
<path d="M3321 2294 c0 -11 3 -14 6 -6 3 7 2 16 -1 19 -3 4 -6 -2 -5 -13z"/>
<path d="M3485 2280 c-3 -5 1 -10 10 -10 9 0 13 5 10 10 -3 6 -8 10 -10 10 -2
0 -7 -4 -10 -10z"/>
<path d="M3270 2256 c0 -14 5 -26 10 -26 6 0 10 9 10 19 0 11 -4 23 -10 26 -6
4 -10 -5 -10 -19z"/>
<path d="M3350 2240 c0 -5 7 -10 15 -10 8 0 15 5 15 10 0 6 -7 10 -15 10 -8 0
-15 -4 -15 -10z"/>
<path d="M3437 2236 c-3 -8 -2 -18 3 -21 13 -8 24 15 12 27 -6 6 -11 4 -15 -6z"/>
<path d="M4037 1848 c-21 -6 -41 -17 -44 -24 -3 -8 -11 -14 -17 -14 -13 0 -29
-27 -43 -75 -11 -35 4 -107 27 -128 21 -20 107 -47 148 -47 20 0 59 -8 89 -17
54 -17 66 -37 44 -72 -11 -17 -76 -29 -141 -26 -28 1 -50 -1 -50 -6 0 -5 -7
-9 -15 -9 -11 0 -15 -11 -15 -43 0 -42 1 -44 39 -55 81 -25 171 -8 234 42 20
16 40 39 43 50 4 11 13 26 20 33 8 8 11 27 8 51 -9 65 -13 76 -36 102 -39 42
-86 60 -168 61 -79 2 -110 13 -110 41 0 15 10 18 64 18 69 0 77 6 75 58 -1 17
-3 21 -6 10 -7 -29 -23 -21 -23 11 0 24 -6 31 -31 40 -37 13 -40 13 -92 -1z"/>
<path d="M3458 1748 c-11 -25 -15 -86 -17 -247 -2 -244 1 -254 67 -265 22 -3
42 -11 44 -17 3 -8 9 -7 19 3 8 8 42 18 75 22 140 16 213 67 221 155 4 41 1
51 -36 100 -38 50 -41 59 -36 100 7 51 -15 106 -50 125 -10 6 -25 17 -33 24
-7 6 -22 12 -33 12 -10 0 -19 5 -19 10 0 6 -38 10 -94 10 l-94 0 -14 -32z
m202 -88 c0 -5 7 -10 15 -10 10 0 15 -10 15 -28 0 -31 -32 -56 -66 -51 -10 2
-25 0 -32 -5 -33 -20 -56 66 -24 90 20 16 92 19 92 4z m55 -212 c36 -16 36
-70 -1 -87 -42 -19 -106 -23 -134 -9 -20 11 -25 21 -25 53 0 36 3 40 30 46 50
11 103 10 130 -3z"/>
<path d="M5562 5370 c-16 -25 -16 -57 1 -63 20 -6 47 4 47 19 0 8 5 14 10 14
15 0 12 19 -4 36 -20 20 -39 18 -54 -6z"/>
<path d="M1196 5238 c-23 -37 -28 -66 -16 -88 14 -27 47 -60 59 -60 5 0 16 -7
24 -15 19 -19 67 -31 67 -16 0 6 5 11 11 11 21 0 39 29 39 62 -1 27 -9 39 -46
68 -26 19 -52 41 -59 48 -22 20 -63 14 -79 -10z"/>
<path d="M5983 4953 c-8 -3 -13 -21 -13 -43 0 -33 4 -39 29 -48 39 -14 53 -2
49 43 -2 32 -8 40 -28 45 -14 4 -31 5 -37 3z m44 -75 c-3 -8 -6 -5 -6 6 -1 11
2 17 5 13 3 -3 4 -12 1 -19z"/>
<path d="M810 3070 c-14 -4 -60 -16 -102 -26 -48 -11 -78 -23 -78 -31 0 -7 -4
-13 -10 -13 -5 0 -10 -6 -10 -14 0 -25 50 -34 115 -20 33 7 71 13 86 14 68 1
109 49 69 82 -24 20 -32 21 -70 8z m-106 -75 c3 -8 1 -15 -4 -15 -6 0 -10 7
-10 15 0 8 2 15 4 15 2 0 6 -7 10 -15z"/>
<path d="M900 2720 c-33 -33 7 -83 50 -60 25 13 28 65 4 74 -25 9 -33 7 -54
-14z"/>
<path d="M1373 1845 c-17 -19 -16 -45 1 -45 30 0 46 13 46 36 0 27 -27 32 -47
9z"/>
<path d="M5216 1434 c-11 -28 -7 -41 24 -75 16 -19 30 -37 30 -41 0 -5 7 -8
15 -8 8 0 15 -6 15 -14 0 -8 7 -16 15 -20 8 -3 15 -12 15 -19 0 -14 40 -37 65
-37 10 0 15 11 15 34 0 26 -9 43 -40 74 -22 22 -40 43 -40 46 0 14 -75 76 -91
76 -9 0 -20 -7 -23 -16z m51 -40 c-3 -3 -12 -4 -19 -1 -8 3 -5 6 6 6 11 1 17
-2 13 -5z"/>
<path d="M2001 1245 c-12 -15 -27 -37 -33 -51 -6 -13 -15 -24 -19 -24 -4 0
-10 -11 -13 -25 -4 -14 -11 -25 -16 -25 -13 0 -13 -67 1 -75 10 -7 49 21 49
36 0 5 18 34 40 66 30 42 40 66 38 87 -4 39 -19 42 -47 11z"/>
<path d="M4684 1085 c-7 -29 15 -79 39 -83 44 -9 65 66 25 85 -49 23 -58 23
-64 -2z"/>
<path d="M4360 926 c0 -24 13 -71 35 -121 7 -16 16 -40 19 -52 9 -30 32 -46
56 -38 16 5 20 15 20 46 0 21 -4 39 -10 39 -5 0 -10 8 -10 18 -1 9 -12 35 -26
57 -13 22 -27 48 -30 58 -4 10 -16 17 -30 17 -19 0 -24 -5 -24 -24z"/>
</g>
</svg>
